<svg width="16" height="16" viewBox="0 0 16 16" fill="none" xmlns="http://www.w3.org/2000/svg">
<path d="M15 4.00002C15 3.46958 14.7893 2.96087 14.4142 2.5858C14.0391 2.21073 13.5304 2.00002 13 2.00002H12.5V1.51408C12.5 1.24502 12.2931 1.01408 12.0241 1.00064C11.9565 0.997383 11.8889 1.00789 11.8255 1.03151C11.762 1.05514 11.7041 1.09139 11.6551 1.13808C11.6061 1.18478 11.5671 1.24093 11.5404 1.30314C11.5138 1.36535 11.5 1.43233 11.5 1.50002V2.00002H4.5V1.51408C4.5 1.24502 4.29313 1.01408 4.02406 1.00064C3.95646 0.997383 3.8889 1.00789 3.82547 1.03151C3.76204 1.05514 3.70407 1.09139 3.65508 1.13808C3.60608 1.18478 3.56707 1.24093 3.54041 1.30314C3.51375 1.36535 3.50001 1.43233 3.5 1.50002V2.00002H3C2.46957 2.00002 1.96086 2.21073 1.58579 2.5858C1.21071 2.96087 1 3.46958 1 4.00002V4.37502C1 4.40817 1.01317 4.43996 1.03661 4.4634C1.06005 4.48685 1.09185 4.50002 1.125 4.50002H14.875C14.9082 4.50002 14.9399 4.48685 14.9634 4.4634C14.9868 4.43996 15 4.40817 15 4.37502V4.00002ZM1 13C1 13.5304 1.21071 14.0392 1.58579 14.4142C1.96086 14.7893 2.46957 15 3 15H13C13.5304 15 14.0391 14.7893 14.4142 14.4142C14.7893 14.0392 15 13.5304 15 13V5.59377C15 5.5689 14.9901 5.54506 14.9725 5.52747C14.955 5.50989 14.9311 5.50002 14.9062 5.50002H1.09375C1.06889 5.50002 1.04504 5.50989 1.02746 5.52747C1.00988 5.54506 1 5.5689 1 5.59377V13ZM11.75 6.50002C11.8983 6.50002 12.0433 6.544 12.1667 6.62641C12.29 6.70882 12.3861 6.82596 12.4429 6.963C12.4997 7.10005 12.5145 7.25085 12.4856 7.39633C12.4567 7.54182 12.3852 7.67546 12.2803 7.78035C12.1754 7.88523 12.0418 7.95667 11.8963 7.9856C11.7508 8.01454 11.6 7.99969 11.463 7.94292C11.3259 7.88616 11.2088 7.79003 11.1264 7.66669C11.044 7.54336 11 7.39835 11 7.25002C11 7.0511 11.079 6.86034 11.2197 6.71969C11.3603 6.57903 11.5511 6.50002 11.75 6.50002ZM11.75 9.00002C11.8983 9.00002 12.0433 9.044 12.1667 9.12641C12.29 9.20882 12.3861 9.32596 12.4429 9.463C12.4997 9.60005 12.5145 9.75085 12.4856 9.89633C12.4567 10.0418 12.3852 10.1755 12.2803 10.2803C12.1754 10.3852 12.0418 10.4567 11.8963 10.4856C11.7508 10.5145 11.6 10.4997 11.463 10.4429C11.3259 10.3862 11.2088 10.29 11.1264 10.1667C11.044 10.0434 11 9.89835 11 9.75002C11 9.5511 11.079 9.36034 11.2197 9.21969C11.3603 9.07903 11.5511 9.00002 11.75 9.00002ZM9.25 6.50002C9.39834 6.50002 9.54334 6.544 9.66668 6.62641C9.79001 6.70882 9.88614 6.82596 9.94291 6.963C9.99967 7.10005 10.0145 7.25085 9.98559 7.39633C9.95665 7.54182 9.88522 7.67546 9.78033 7.78035C9.67544 7.88523 9.5418 7.95667 9.39632 7.9856C9.25083 8.01454 9.10003 7.99969 8.96299 7.94292C8.82594 7.88616 8.70881 7.79003 8.6264 7.66669C8.54399 7.54336 8.5 7.39835 8.5 7.25002C8.5 7.0511 8.57902 6.86034 8.71967 6.71969C8.86032 6.57903 9.05109 6.50002 9.25 6.50002ZM9.25 9.00002C9.39834 9.00002 9.54334 9.044 9.66668 9.12641C9.79001 9.20882 9.88614 9.32596 9.94291 9.463C9.99967 9.60005 10.0145 9.75085 9.98559 9.89633C9.95665 10.0418 9.88522 10.1755 9.78033 10.2803C9.67544 10.3852 9.5418 10.4567 9.39632 10.4856C9.25083 10.5145 9.10003 10.4997 8.96299 10.4429C8.82594 10.3862 8.70881 10.29 8.6264 10.1667C8.54399 10.0434 8.5 9.89835 8.5 9.75002C8.5 9.5511 8.57902 9.36034 8.71967 9.21969C8.86032 9.07903 9.05109 9.00002 9.25 9.00002ZM9.25 11.5C9.39834 11.5 9.54334 11.544 9.66668 11.6264C9.79001 11.7088 9.88614 11.826 9.94291 11.963C9.99967 12.1 10.0145 12.2508 9.98559 12.3963C9.95665 12.5418 9.88522 12.6755 9.78033 12.7803C9.67544 12.8852 9.5418 12.9567 9.39632 12.9856C9.25083 13.0145 9.10003 12.9997 8.96299 12.9429C8.82594 12.8862 8.70881 12.79 8.6264 12.6667C8.54399 12.5434 8.5 12.3984 8.5 12.25C8.5 12.0511 8.57902 11.8603 8.71967 11.7197C8.86032 11.579 9.05109 11.5 9.25 11.5ZM6.75 9.00002C6.89834 9.00002 7.04334 9.044 7.16668 9.12641C7.29001 9.20882 7.38614 9.32596 7.44291 9.463C7.49968 9.60005 7.51453 9.75085 7.48559 9.89633C7.45665 10.0418 7.38522 10.1755 7.28033 10.2803C7.17544 10.3852 7.0418 10.4567 6.89632 10.4856C6.75083 10.5145 6.60003 10.4997 6.46299 10.4429C6.32594 10.3862 6.20881 10.29 6.1264 10.1667C6.04399 10.0434 6 9.89835 6 9.75002C6 9.5511 6.07902 9.36034 6.21967 9.21969C6.36032 9.07903 6.55109 9.00002 6.75 9.00002ZM6.75 11.5C6.89834 11.5 7.04334 11.544 7.16668 11.6264C7.29001 11.7088 7.38614 11.826 7.44291 11.963C7.49968 12.1 7.51453 12.2508 7.48559 12.3963C7.45665 12.5418 7.38522 12.6755 7.28033 12.7803C7.17544 12.8852 7.0418 12.9567 6.89632 12.9856C6.75083 13.0145 6.60003 12.9997 6.46299 12.9429C6.32594 12.8862 6.20881 12.79 6.1264 12.6667C6.04399 12.5434 6 12.3984 6 12.25C6 12.0511 6.07902 11.8603 6.21967 11.7197C6.36032 11.579 6.55109 11.5 6.75 11.5ZM4.25 9.00002C4.39834 9.00002 4.54334 9.044 4.66668 9.12641C4.79001 9.20882 4.88614 9.32596 4.94291 9.463C4.99968 9.60005 5.01453 9.75085 4.98559 9.89633C4.95665 10.0418 4.88522 10.1755 4.78033 10.2803C4.67544 10.3852 4.5418 10.4567 4.39632 10.4856C4.25083 10.5145 4.10003 10.4997 3.96299 10.4429C3.82594 10.3862 3.70881 10.29 3.6264 10.1667C3.54399 10.0434 3.5 9.89835 3.5 9.75002C3.5 9.5511 3.57902 9.36034 3.71967 9.21969C3.86032 9.07903 4.05109 9.00002 4.25 9.00002ZM4.25 11.5C4.39834 11.5 4.54334 11.544 4.66668 11.6264C4.79001 11.7088 4.88614 11.826 4.94291 11.963C4.99968 12.1 5.01453 12.2508 4.98559 12.3963C4.95665 12.5418 4.88522 12.6755 4.78033 12.7803C4.67544 12.8852 4.5418 12.9567 4.39632 12.9856C4.25083 13.0145 4.10003 12.9997 3.96299 12.9429C3.82594 12.8862 3.70881 12.79 3.6264 12.6667C3.54399 12.5434 3.5 12.3984 3.5 12.25C3.5 12.0511 3.57902 11.8603 3.71967 11.7197C3.86032 11.579 4.05109 11.5 4.25 11.5Z" fill="black"/>
</svg>
