<svg width="24" height="24" viewBox="0 0 24 24" fill="none" xmlns="http://www.w3.org/2000/svg">
<path d="M2.5 5.5V1.5H6.5V2.5H3.5V5.5H2.5ZM20.5 5.5V2.5H17.5V1.5H21.5V5.5H20.5ZM2.5 22.5V18.5H3.5V21.5H6.5V22.5H2.5ZM17.5 22.5V21.5H20.5V18.5H21.5V22.5H17.5ZM7.116 19.5C6.65533 19.5 6.271 19.346 5.963 19.038C5.655 18.73 5.50067 18.3453 5.5 17.884V6.116C5.5 5.65533 5.65433 5.271 5.963 4.963C6.27167 4.655 6.656 4.50067 7.116 4.5H16.885C17.345 4.5 17.7293 4.65433 18.038 4.963C18.3467 5.27167 18.5007 5.656 18.5 6.116V17.885C18.5 18.345 18.346 18.7293 18.038 19.038C17.73 19.3467 17.3453 19.5007 16.884 19.5H7.116ZM9.5 9.5H14.5V8.5H9.5V9.5ZM9.5 12.5H14.5V11.5H9.5V12.5ZM9.5 15.5H14.5V14.5H9.5V15.5Z" fill="black"/>
</svg>
