<svg width="24" height="24" viewBox="0 0 24 24" fill="none" xmlns="http://www.w3.org/2000/svg">
<path d="M10.5 2C11.751 2 12.94 2.27 14.009 2.756C13.4931 3.21345 13.1506 3.83462 13.039 4.515C11.7531 3.96939 10.3258 3.8525 8.96828 4.18165C7.61081 4.5108 6.39548 5.26849 5.50235 6.34245C4.60922 7.41641 4.0858 8.74951 4.00965 10.1442C3.9335 11.539 4.30867 12.9211 5.07957 14.0859C5.85047 15.2508 6.97608 16.1363 8.28965 16.6112C9.60322 17.0862 11.0349 17.1254 12.3725 16.7231C13.71 16.3207 14.8824 15.4981 15.7159 14.3772C16.5494 13.2564 16.9997 11.8968 17 10.5L16.995 10.231C17.531 10.711 18.234 10.996 18.986 11C18.8865 12.7355 18.2549 14.3982 17.177 15.762L20.829 19.414C21.0111 19.6026 21.1119 19.8552 21.1097 20.1174C21.1074 20.3796 21.0022 20.6304 20.8168 20.8158C20.6314 21.0012 20.3806 21.1064 20.1184 21.1087C19.8562 21.111 19.6036 21.0102 19.415 20.828L15.763 17.176C14.6985 18.0149 13.4488 18.5871 12.1181 18.8449C10.7875 19.1026 9.41452 19.0384 8.11374 18.6577C6.81296 18.2769 5.6221 17.5906 4.64049 16.656C3.65889 15.7214 2.91502 14.5656 2.47093 13.2851C2.02684 12.0045 1.89541 10.6363 2.08761 9.29466C2.2798 7.95299 2.79005 6.67674 3.57579 5.57236C4.36152 4.46799 5.39996 3.56753 6.60447 2.94609C7.80897 2.32466 9.14462 2.00027 10.5 2ZM10.5 5C11.427 5 12.301 5.23 13.068 5.635C13.1775 6.14041 13.4158 6.60893 13.7597 6.9951C14.1036 7.38127 14.5416 7.67197 15.031 7.839L15.379 7.958C15.9338 9.0226 16.1251 10.2395 15.9237 11.423C15.7222 12.6065 15.139 13.6915 14.2632 14.5126C13.3874 15.3336 12.2669 15.8456 11.0729 15.9703C9.87888 16.0949 8.67686 15.8255 7.65028 15.2031C6.6237 14.5808 5.82895 13.6396 5.38733 12.5233C4.9457 11.4069 4.88146 10.1768 5.2044 9.02049C5.52734 7.86423 6.21973 6.84539 7.17589 6.11945C8.13205 5.39352 9.29947 5.00037 10.5 5ZM19 1C19.1871 1 19.3704 1.05248 19.5291 1.15147C19.6879 1.25046 19.8157 1.392 19.898 1.56L19.946 1.677L20.076 2.055C20.2132 2.45718 20.4343 2.82563 20.7246 3.13594C21.0149 3.44625 21.3678 3.69135 21.76 3.855L21.945 3.925L22.323 4.054C22.5102 4.11786 22.6742 4.2358 22.7944 4.3929C22.9145 4.54999 22.9854 4.7392 22.9981 4.93658C23.0107 5.13396 22.9645 5.33065 22.8653 5.50178C22.7662 5.67291 22.6185 5.8108 22.441 5.898L22.323 5.946L21.945 6.076C21.5428 6.2132 21.1744 6.43428 20.864 6.72459C20.5537 7.01491 20.3086 7.36783 20.145 7.76L20.075 7.945L19.946 8.323C19.882 8.51014 19.764 8.6741 19.6068 8.79416C19.4497 8.91423 19.2604 8.98499 19.0631 8.99752C18.8657 9.01004 18.669 8.96376 18.498 8.86452C18.3269 8.76528 18.1891 8.61755 18.102 8.44L18.054 8.323L17.924 7.945C17.7868 7.54282 17.5657 7.17437 17.2754 6.86406C16.9851 6.55375 16.6322 6.30865 16.24 6.145L16.055 6.075L15.677 5.946C15.4898 5.88214 15.3257 5.7642 15.2056 5.6071C15.0854 5.45001 15.0145 5.2608 15.0019 5.06342C14.9893 4.86604 15.0355 4.66935 15.1346 4.49822C15.2338 4.32709 15.3815 4.1892 15.559 4.102L15.677 4.054L16.055 3.924C16.4572 3.7868 16.8256 3.56572 17.1359 3.27541C17.4462 2.98509 17.6913 2.63217 17.855 2.24L17.925 2.055L18.054 1.677C18.1214 1.47959 18.2488 1.30818 18.4184 1.18679C18.588 1.06539 18.7914 1.00008 19 1Z" fill="black"/>
</svg>
