<svg width="17" height="17" viewBox="0 0 17 17" fill="none" xmlns="http://www.w3.org/2000/svg">
<path d="M5.5 7C6.16304 7 6.79893 6.73661 7.26777 6.26777C7.73661 5.79893 8 5.16304 8 4.5C8 3.83696 7.73661 3.20107 7.26777 2.73223C6.79893 2.26339 6.16304 2 5.5 2C4.83696 2 4.20107 2.26339 3.73223 2.73223C3.26339 3.20107 3 3.83696 3 4.5C3 5.16304 3.26339 5.79893 3.73223 6.26777C4.20107 6.73661 4.83696 7 5.5 7ZM13.5 5C13.5 5.445 13.355 5.856 13.11 6.188C12.7325 6.33307 12.3895 6.5555 12.103 6.841L12.009 6.935C11.713 7.01228 11.4033 7.02074 11.1035 6.95973C10.8038 6.89872 10.522 6.76988 10.2798 6.58306C10.0375 6.39625 9.84131 6.15645 9.70615 5.88203C9.57098 5.60762 9.50046 5.3059 9.5 5C9.5 4.46957 9.71071 3.96086 10.0858 3.58579C10.4609 3.21071 10.9696 3 11.5 3C12.0304 3 12.5391 3.21071 12.9142 3.58579C13.2893 3.96086 13.5 4.46957 13.5 5ZM7.274 11.67L9.499 9.445C9.48476 9.05696 9.3206 8.68956 9.04104 8.42007C8.76148 8.15058 8.3883 8 8 8H3C2.60218 8 2.22064 8.15804 1.93934 8.43934C1.65804 8.72064 1.5 9.10218 1.5 9.5V9.575C1.5 9.575 1.5 12.5 5.5 12.5C5.962 12.5 6.37 12.461 6.732 12.392C6.87733 12.1267 7.058 11.886 7.274 11.67ZM7.98 12.377L12.81 7.547C13.1609 7.19638 13.6367 6.99951 14.1327 6.9997C14.6287 6.99989 15.1044 7.19712 15.455 7.548C15.8056 7.89888 16.0025 8.37467 16.0023 8.87071C16.0021 9.36674 15.8049 9.84238 15.454 10.193L10.624 15.022C10.3425 15.3034 9.99002 15.5031 9.604 15.6L8.106 15.974C7.95705 16.0111 7.80103 16.0091 7.6531 15.9681C7.50516 15.9271 7.37035 15.8485 7.26175 15.74C7.15316 15.6315 7.07447 15.4968 7.03333 15.3489C6.9922 15.201 6.99002 15.045 7.027 14.896L7.402 13.398C7.49886 13.012 7.69862 12.6595 7.98 12.378" fill="black"/>
</svg>
