<svg width="24" height="24" viewBox="0 0 24 24" fill="none" xmlns="http://www.w3.org/2000/svg">
<path d="M12.0001 3.29999C12.0001 3.15799 12.0001 3.08599 12.0461 3.04199C12.0911 2.99799 12.1611 2.99999 12.3001 3.00499C14.2536 3.06995 16.1328 3.76909 17.6538 4.99673C19.1747 6.22436 20.2546 7.91376 20.7304 9.80956C21.2061 11.7053 21.0517 13.7045 20.2905 15.5048C19.5294 17.305 18.2029 18.8086 16.5115 19.7882C14.8201 20.7677 12.8558 21.1701 10.9155 20.9343C8.97522 20.6986 7.1644 19.8376 5.75678 18.4815C4.34917 17.1254 3.42127 15.348 3.11336 13.4178C2.80546 11.4877 3.13427 9.50972 4.0501 7.78299C4.1141 7.65999 4.1471 7.59899 4.2081 7.58099C4.2691 7.56299 4.3311 7.59899 4.4541 7.66999L10.0011 10.853C10.1191 10.921 10.1781 10.954 10.1971 11.007C10.2151 11.06 10.1871 11.131 10.1321 11.273C9.9813 11.6602 9.95453 12.0846 10.0555 12.4877C10.1564 12.8908 10.3801 13.2525 10.6956 13.5229C11.0111 13.7933 11.4028 13.9591 11.8165 13.9972C12.2303 14.0353 12.6457 13.9439 13.0052 13.7357C13.3648 13.5274 13.6508 13.2126 13.8237 12.8348C13.9965 12.4569 14.0477 12.0347 13.9702 11.6265C13.8927 11.2183 13.6902 10.8442 13.3908 10.5561C13.0915 10.2679 12.71 10.0799 12.2991 10.018C12.1481 9.99499 12.0731 9.98399 12.0361 9.94199C12.0001 9.89999 12.0001 9.83199 12.0001 9.69599V3.29999Z" fill="black" fill-opacity="0.25"/>
<path d="M8.65007 17.802C8.57907 17.926 8.54308 17.988 8.56008 18.049C8.57908 18.11 8.64007 18.143 8.76307 18.207C9.69263 18.6919 10.7192 18.9618 11.7671 18.9967C12.8149 19.0317 13.8572 18.8308 14.817 18.409C15.7768 17.9871 16.6296 17.355 17.3124 16.5595C17.9952 15.7639 18.4905 14.8251 18.7619 13.8124C19.0332 12.7997 19.0737 11.739 18.8801 10.7086C18.6866 9.67817 18.2641 8.7044 17.6439 7.85916C17.0236 7.01392 16.2214 6.31881 15.2964 5.82515C14.3715 5.3315 13.3475 5.0519 12.3001 5.00702C12.1621 5.00102 12.0921 4.99702 12.0461 5.04202C12.0001 5.08602 12.0001 5.15702 12.0001 5.30002V9.70202C12.0001 9.83802 12.0001 9.90602 12.0361 9.94802C12.0731 9.99102 12.1481 10.002 12.2991 10.025C12.5768 10.0675 12.8424 10.168 13.0787 10.32C13.3149 10.472 13.5165 10.6721 13.6703 10.9072C13.8241 11.1423 13.9266 11.4072 13.9712 11.6846C14.0158 11.9619 14.0014 12.2456 13.9291 12.517C13.8564 12.7886 13.7272 13.0417 13.55 13.2599C13.3727 13.4781 13.1514 13.6564 12.9005 13.7832C12.6496 13.91 12.3748 13.9823 12.094 13.9956C11.8132 14.0088 11.5328 13.9626 11.2711 13.86C11.1291 13.804 11.0581 13.777 11.0061 13.795C10.9541 13.813 10.9191 13.872 10.8511 13.99L8.65007 17.802Z" fill="black"/>
</svg>
