<svg width="937" height="936" viewBox="0 0 937 936" fill="none" xmlns="http://www.w3.org/2000/svg">
<path d="M755.842 98.9951C765.793 107.201 778.888 118.375 788.491 126.93C761.778 101.963 701.892 112.439 615.991 164.119C615.991 164.119 615.817 164.119 615.817 163.944C687.575 103.709 735.938 83.2816 755.842 98.9951Z" fill="url(#paint0_linear_3_1)"/>
<path d="M755.841 98.9948C765.793 107.201 778.888 118.375 788.491 126.93C761.778 101.963 701.892 112.439 615.991 164.118C615.991 164.118 615.817 164.118 615.817 163.944C687.575 103.709 735.938 83.2813 755.841 98.9948ZM754.794 98.1218C734.89 82.5829 686.702 103.534 614.944 164.642C701.717 112.613 762.127 102.137 789.014 127.454C778.888 118.549 765.27 106.677 754.794 98.1218Z" fill="url(#paint1_linear_3_1)"/>
<path d="M698.574 60.7591L702.066 62.6796C711.145 68.2666 723.192 75.5996 732.096 81.5358C717.431 71.2347 677.623 97.9477 615.817 163.944C615.817 163.944 615.642 163.944 615.642 163.77C638.689 129.2 687.051 56.918 698.574 60.7591Z" fill="url(#paint2_linear_3_1)"/>
<path d="M698.575 60.7588L702.066 62.6794C711.145 68.2664 723.192 75.5993 732.097 81.5355C717.431 71.2345 677.623 97.9474 615.817 163.944C615.817 163.944 615.642 163.944 615.642 163.769C638.689 129.2 687.051 56.9177 698.575 60.7588ZM697.352 60.0604C690.892 56.394 663.132 90.9636 614.944 164.817C677.623 98.4712 718.129 71.9329 733.144 82.4085C723.891 76.4723 711.494 68.441 702.066 62.6794L697.352 60.0604Z" fill="url(#paint3_linear_3_1)"/>
<path d="M638.688 32.2998L656.672 39.8074L673.782 47.6641C673.433 47.3149 654.053 85.9003 615.293 163.769H615.118C640.434 79.4403 647.593 35.6171 638.688 32.2998Z" fill="url(#paint4_linear_3_1)"/>
<path d="M638.689 32.3001L656.672 39.8077L673.782 47.6644C673.433 47.3153 654.053 85.9006 615.293 163.77H615.118C640.435 79.4406 647.593 35.6174 638.689 32.3001ZM637.641 31.7764C646.895 35.0937 640.085 79.6152 614.944 164.817C654.228 86.4244 674.306 47.839 675.004 48.1882L656.846 39.6331L637.641 31.7764Z" fill="url(#paint5_linear_3_1)"/>
<path d="M574.787 12.396C585.263 15.1895 599.23 18.856 609.531 21.9987L612.674 23.0462C628.388 28.1095 630.483 75.4246 615.118 163.769H614.944C616.341 69.3138 600.802 18.3322 574.787 12.396Z" fill="url(#paint6_linear_3_1)"/>
<path d="M574.787 12.3961C585.263 15.1896 599.23 18.8561 609.531 21.9988L612.674 23.0463C628.388 28.1095 630.483 75.4246 615.118 163.769H614.944C616.341 69.3138 600.802 18.3323 574.787 12.3961ZM573.565 12.0469C585.263 16.7609 616.166 29.5063 615.118 164.817C631.006 75.7738 629.435 28.2841 613.896 23.3955L609.531 21.9988C598.707 18.8561 584.39 14.6658 573.565 12.0469Z" fill="url(#paint7_linear_3_1)"/>
<path d="M504.426 1.39697C516.997 2.79373 533.583 4.71426 546.154 6.6348C579.851 12.2218 605.691 65.2985 614.944 163.595H614.769C590.152 59.8861 549.297 5.06345 504.426 1.39697Z" fill="url(#paint8_linear_3_1)"/>
<path d="M504.426 1.39697C516.996 2.79373 533.583 4.71426 546.154 6.6348C579.85 12.2218 605.69 65.2985 614.944 163.595H614.769C590.151 59.886 549.296 5.06345 504.426 1.39697ZM503.029 1.39697C548.423 4.88886 589.802 60.2352 614.944 164.817C606.214 65.8223 581.072 12.571 547.376 6.8094C534.456 4.88886 517.346 2.61913 504.426 1.39697H503.029Z" fill="url(#paint9_linear_3_1)"/>
<path d="M424.636 1.92054L444.714 0.523783L472.125 0C532.71 6.1108 574.089 53.4259 614.594 163.595H614.42C560.121 50.8069 489.934 -4.36486 424.636 1.92054Z" fill="url(#paint10_linear_3_1)"/>
<path d="M424.636 1.92054L444.714 0.523783L472.126 0C532.71 6.1108 574.089 53.4259 614.595 163.595H614.42C560.121 50.8069 489.934 -4.36486 424.636 1.92054ZM422.89 2.09513C488.887 -4.53945 559.947 50.9815 614.944 164.817C578.977 56.394 526.774 0.523783 473.523 0C464.793 0.174594 453.27 0.174594 444.714 0.523783L422.89 2.09513Z" fill="url(#paint11_linear_3_1)"/>
<path d="M333.498 19.5546C346.942 16.0627 364.75 11.3486 378.369 8.55512L388.146 6.80918C461.999 -6.1108 546.154 47.315 614.246 163.595H614.071C524.853 42.7756 419.049 -6.28539 333.498 19.5546Z" fill="url(#paint12_linear_3_1)"/>
<path d="M333.498 19.5548C346.942 16.0629 364.75 11.3489 378.369 8.55535L388.146 6.8094C461.999 -6.11057 546.154 47.3153 614.246 163.595H614.071C524.853 42.7758 419.049 -6.28517 333.498 19.5548ZM331.752 20.0786C417.827 -6.45976 524.853 42.9504 614.944 164.643C547.376 47.6645 463.571 -6.28517 389.717 6.28562L378.369 8.38075C364.401 11.8726 345.719 16.2375 331.752 20.0786Z" fill="url(#paint13_linear_3_1)"/>
<path d="M232.757 63.378C250.391 53.9499 274.136 42.2521 292.468 34.2207C385.352 -3.66623 508.092 40.3315 614.071 163.77H613.896C482.601 38.2364 334.022 4.36511 232.757 63.378Z" fill="url(#paint14_linear_3_1)"/>
<path d="M232.757 63.378C250.391 53.9499 274.136 42.252 292.468 34.2207C385.352 -3.66625 508.092 40.3315 614.071 163.77H613.896C482.601 38.2364 334.022 4.36508 232.757 63.378ZM230.836 64.4255C332.45 4.71427 482.601 38.411 614.944 164.817C509.664 40.8553 387.273 -4.01544 294.389 33.3477C252.486 51.8547 251.788 52.2039 230.836 64.4255Z" fill="url(#paint15_linear_3_1)"/>
<path d="M132.365 141.596L149.126 125.184C160.824 115.058 176.538 101.614 188.934 92.186C293.516 14.3169 462.698 37.538 613.896 163.77C613.896 163.77 613.896 163.77 613.722 163.944C434.413 39.4585 236.249 34.7445 132.365 141.596Z" fill="url(#paint16_linear_3_1)"/>
<path d="M132.365 141.596L149.126 125.184C160.824 115.058 176.537 101.614 188.934 92.1857C293.516 14.3166 462.697 37.5377 613.896 163.769C613.896 163.769 613.896 163.769 613.722 163.944C434.413 39.4582 236.249 34.7442 132.365 141.596ZM130.619 143.342C234.503 35.2679 434.413 39.4582 614.944 164.817C464.443 37.7123 295.611 13.6183 191.029 90.6143C178.283 100.741 161.522 114.185 149.301 125.009L130.619 143.342Z" fill="url(#paint17_linear_3_1)"/>
<path d="M52.75 251.765C61.1305 236.924 72.6538 217.37 81.9073 203.053L95.5256 184.197C194.171 54.648 413.811 42.601 613.721 163.944C613.721 163.944 613.721 163.944 613.721 164.119C385.876 50.4577 137.079 89.916 52.75 251.765Z" fill="url(#paint18_linear_3_1)"/>
<path d="M52.7502 251.765C61.1307 236.924 72.654 217.37 81.9075 203.053L95.5258 184.197C194.172 54.648 413.811 42.6009 613.722 163.944C613.722 163.944 613.722 163.944 613.722 164.119C385.876 50.4577 137.079 89.916 52.7502 251.765ZM51.7026 254.209C135.333 90.789 386.051 50.6323 614.944 164.817C415.732 42.4264 196.267 53.2512 97.0972 182.276L82.082 203.053C72.4794 218.243 60.0832 238.496 51.7026 254.209Z" fill="url(#paint19_linear_3_1)"/>
<path d="M8.40332 379.044L12.2444 361.41C16.9584 344.125 23.593 321.253 29.5292 304.492C32.1481 297.334 35.2908 290.35 38.6081 283.366C119.62 116.105 376.797 63.0283 613.547 164.118C613.547 164.118 613.547 164.118 613.547 164.293C371.036 83.4559 109.144 153.119 28.1325 320.206C18.879 339.411 12.2444 359.14 8.40332 379.044Z" fill="url(#paint20_linear_3_1)"/>
<path d="M8.40339 379.044L12.2445 361.41C16.9585 344.125 23.5931 321.253 29.5293 304.492C32.1482 297.334 35.2909 290.35 38.6082 283.366C119.62 116.105 376.797 63.0284 613.547 164.119C613.547 164.119 613.547 164.119 613.547 164.293C371.036 83.456 109.144 153.119 28.1325 320.206C18.879 339.411 12.2445 359.14 8.40339 379.044ZM8.0542 381.488C11.8953 361.235 18.5299 340.983 27.9579 321.428C109.144 153.992 371.909 83.8052 614.944 164.817C378.02 62.1555 120.144 114.534 38.9574 281.97C35.8147 288.604 32.8466 295.239 30.4023 301.873C24.4661 319.682 16.9585 343.427 12.2445 361.41L8.0542 381.488Z" fill="url(#paint21_linear_3_1)"/>
<path d="M1.24487 502.133C0.721086 488.864 -0.151886 471.23 0.0227086 457.961L1.24487 432.121C34.4178 189.26 350.433 96.2016 613.372 164.468V164.643C368.94 120.994 105.478 220.862 24.4659 387.949C5.95891 426.359 -1.54864 464.945 1.24487 502.133Z" fill="url(#paint22_linear_3_1)"/>
<path d="M1.24487 502.133C0.721086 488.864 -0.151886 471.23 0.0227086 457.961L1.24487 432.121C34.4178 189.26 350.433 96.2013 613.372 164.468V164.642C368.94 120.994 105.478 220.862 24.4659 387.948C5.95891 426.359 -1.54864 464.944 1.24487 502.133ZM1.41946 504.403C-1.37405 466.865 5.95892 427.93 24.6405 389.171C105.827 221.735 370.163 121.343 614.944 164.817C276.755 82.7575 20.2756 238.496 1.41946 429.676L0.0227086 457.961C0.197303 471.928 0.371897 490.435 1.41946 504.403Z" fill="url(#paint23_linear_3_1)"/>
<path d="M22.0214 609.858C17.1328 592.049 11.022 568.13 7.18092 550.147C-0.326637 508.244 6.13336 463.199 28.3068 417.455C109.319 250.194 371.035 137.231 613.547 164.642V164.817C376.797 160.278 119.62 291.747 38.6079 458.834C12.2442 513.307 7.7047 564.813 22.0214 609.858Z" fill="url(#paint24_linear_3_1)"/>
<path d="M22.0216 609.858C17.133 592.049 11.0222 568.13 7.18109 550.147C-0.326469 508.244 6.13352 463.199 28.307 417.455C109.319 250.194 371.036 137.231 613.547 164.642V164.817C376.797 160.278 119.62 291.747 38.6081 458.834C12.2443 513.307 7.70487 564.813 22.0216 609.858ZM22.5454 611.778C-35.4199 380.616 307.134 164.119 614.944 164.817C372.083 136.184 109.144 248.622 27.9578 416.058C5.95893 461.453 -0.326468 506.324 6.8319 548.052C10.8476 567.257 17.133 592.748 22.5454 611.778Z" fill="url(#paint25_linear_3_1)"/>
<path d="M60.258 697.854L56.7661 691.743C50.3061 678.997 41.9256 662.062 36.164 648.967C17.4824 603.922 20.4505 549.274 49.6077 489.213C130.619 322.127 382.908 177.213 613.373 164.992V165.166C394.431 200.26 151.396 363.68 70.3844 530.767C37.9099 597.811 36.3386 655.253 60.258 697.854Z" fill="url(#paint26_linear_3_1)"/>
<path d="M60.258 697.853L56.7661 691.743C50.3061 678.997 41.9256 662.062 36.164 648.967C17.4824 603.922 20.4505 549.274 49.6077 489.213C130.619 322.126 382.908 177.213 613.373 164.991V165.166C394.431 200.26 151.396 363.68 70.3844 530.767C37.9099 597.811 36.3386 655.252 60.258 697.853ZM61.1309 699.25C37.0369 656.824 38.6083 599.382 71.0828 532.163C152.269 364.727 395.828 200.26 614.944 164.817C243.058 192.752 -35.7689 469.135 35.6402 647.221C41.751 660.665 50.1315 678.473 56.9407 691.743L61.1309 699.25Z" fill="url(#paint27_linear_3_1)"/>
<path d="M108.271 767.342L92.5576 747.438L79.2884 728.756C-17.9606 553.115 314.816 242.686 613.722 165.166C613.722 165.166 613.722 165.341 613.896 165.341C284.611 301.524 16.9583 655.951 108.271 767.342Z" fill="url(#paint28_linear_3_1)"/>
<path d="M108.271 767.342L92.5578 747.438L79.2886 728.757C-17.9604 553.115 314.816 242.686 613.722 165.166C613.722 165.166 613.722 165.341 613.896 165.341C284.611 301.524 16.9584 655.951 108.271 767.342ZM109.319 768.389C13.4666 626.619 340.482 272.018 614.944 164.817C405.082 215.275 169.205 391.964 88.0183 559.4C53.6232 630.285 52.4011 688.251 78.5902 727.534L92.7324 747.438L109.319 768.389Z" fill="url(#paint29_linear_3_1)"/>
<path d="M163.094 822.863L146.857 808.372L130.445 792.134C104.256 764.548 107.224 709.027 145.285 630.285C226.297 463.199 435.81 255.257 613.722 165.341C458.507 276.557 267.152 501.609 186.14 668.696C146.507 750.406 140.571 803.308 163.094 822.863Z" fill="url(#paint30_linear_3_1)"/>
<path d="M163.094 822.863L146.857 808.372L130.445 792.134C104.256 764.548 107.224 709.027 145.285 630.285C226.297 463.199 435.81 255.257 613.722 165.341C458.507 276.557 267.152 501.609 186.14 668.696C146.507 750.406 140.571 803.308 163.094 822.863ZM164.141 823.91C141.793 804.53 147.73 751.803 187.537 669.918C268.723 502.482 460.079 276.383 615.119 164.817C436.334 253.86 225.599 461.627 144.412 629.063C106.351 707.631 103.557 763.326 129.746 791.087L147.206 808.372L164.141 823.91Z" fill="url(#paint31_linear_3_1)"/>
<path d="M220.012 864.94C210.933 859.004 198.886 850.973 189.981 844.513L186.839 842.069C168.332 828.101 177.061 777.643 217.567 694.013C298.579 526.926 475.967 290.525 614.071 165.516C614.071 165.516 614.246 165.516 614.246 165.69C501.458 308.159 344.672 558.527 263.66 725.614C222.631 810.642 208.838 857.607 220.012 864.94Z" fill="url(#paint32_linear_3_1)"/>
<path d="M220.011 864.94C210.932 859.004 198.885 850.973 189.981 844.513L186.838 842.069C168.331 828.101 177.061 777.643 217.567 694.013C298.579 526.926 475.967 290.525 614.071 165.516C614.071 165.516 614.245 165.516 614.245 165.69C501.457 308.159 344.672 558.527 263.66 725.614C222.63 810.642 208.837 857.607 220.011 864.94ZM221.059 865.464C210.059 858.48 224.027 811.515 265.231 726.487C346.418 559.051 503.029 307.461 614.944 164.643C475.967 288.954 297.357 525.529 216.17 692.965C175.664 776.421 167.109 827.053 185.791 841.37L189.981 844.513C199.409 850.973 211.631 859.528 221.059 865.464Z" fill="url(#paint33_linear_3_1)"/>
<path d="M278.85 896.018C268.374 891.129 254.581 884.495 244.28 879.082C239.217 876.114 256.851 831.418 298.23 745.867C379.242 578.78 520.663 319.333 614.246 165.69H614.42C548.074 332.777 428.826 603.049 347.815 770.135C306.436 855.861 283.04 897.764 278.85 896.018Z" fill="url(#paint34_linear_3_1)"/>
<path d="M278.85 896.018C268.374 891.129 254.581 884.495 244.28 879.082C239.217 876.114 256.851 831.418 298.23 745.867C379.241 578.78 520.663 319.333 614.245 165.69H614.42C548.074 332.777 428.826 603.049 347.815 770.135C306.436 855.861 283.04 897.764 278.85 896.018ZM280.072 896.542C284.437 898.462 308.182 856.56 349.735 771.008C430.921 603.572 549.645 332.253 615.118 164.817C520.488 317.761 378.019 577.558 296.833 744.994C255.454 830.545 237.995 875.416 243.407 878.384C254.057 883.796 268.374 891.129 279.199 896.018L280.072 896.542Z" fill="url(#paint35_linear_3_1)"/>
<path d="M341.354 918.366L326.339 913.827L304.34 906.319C315.514 910.335 343.1 870.004 384.479 784.976C465.665 618.064 568.502 341.157 614.769 165.865H614.944C597.135 350.411 517.171 634.825 436.159 801.912C395.479 885.717 362.306 924.128 341.354 918.366Z" fill="url(#paint36_linear_3_1)"/>
<path d="M341.355 918.366L326.339 913.827L304.341 906.319C315.515 910.335 343.1 870.003 384.479 784.976C465.666 618.064 568.502 341.157 614.769 165.865H614.944C597.135 350.411 517.171 634.825 436.159 801.912C395.479 885.717 362.306 924.128 341.355 918.366ZM342.577 918.715C363.703 924.477 397.05 886.066 437.731 802.261C518.917 634.825 598.183 349.363 614.944 164.643C567.978 339.411 464.094 616.842 382.908 784.278C341.704 869.305 314.118 909.636 303.293 905.795L326.339 913.827L342.577 918.715Z" fill="url(#paint37_linear_3_1)"/>
<path d="M409.796 932.159C399.844 930.588 386.749 928.667 376.972 926.921L369.115 925.35C396.527 931.111 433.366 893.748 473.348 811.165C554.36 644.078 617.737 355.474 614.944 165.865H615.119C646.371 360.363 606.04 652.808 525.028 819.895C486.443 899.684 445.588 936.524 409.796 932.159Z" fill="url(#paint38_linear_3_1)"/>
<path d="M409.795 932.159C399.844 930.588 386.749 928.667 376.972 926.921L369.115 925.35C396.526 931.111 433.366 893.748 473.348 811.165C554.36 644.078 617.737 355.474 614.944 165.864H615.118C646.371 360.363 606.04 652.808 525.028 819.895C486.442 899.684 445.587 936.524 409.795 932.159ZM411.192 932.333C447.159 936.524 488.188 899.859 526.948 820.244C608.135 652.808 647.593 359.315 615.118 164.817C617.214 354.252 553.137 643.38 471.951 810.816C431.969 893.399 395.304 930.937 368.067 925L377.146 926.921C387.098 928.667 400.717 931.111 411.192 932.333Z" fill="url(#paint39_linear_3_1)"/>
<path d="M486.093 935.651C472.475 935.825 454.142 935.651 440.524 935.127C481.204 937.397 524.504 900.906 561.867 823.561C642.879 656.474 666.623 362.458 615.118 166.039H615.293C694.384 362.807 692.987 656.998 611.975 824.085C576.707 897.065 532.011 933.73 486.093 935.651Z" fill="url(#paint40_linear_3_1)"/>
<path d="M486.093 935.651C472.475 935.825 454.142 935.651 440.524 935.127C481.204 937.397 524.504 900.906 561.867 823.561C642.879 656.474 666.623 362.458 615.118 166.039H615.293C694.384 362.807 692.987 656.998 611.975 824.085C576.707 897.065 532.011 933.73 486.093 935.651ZM487.664 935.476C666.1 912.43 737.509 480.309 615.118 164.817C666.1 361.061 641.657 655.951 560.47 823.387C522.932 900.906 479.808 937.397 439.302 934.952C453.618 935.476 473.173 936.524 487.664 935.476Z" fill="url(#paint41_linear_3_1)"/>
<path d="M573.74 923.953L557.502 927.445C546.677 929.191 532.535 931.635 521.71 933.032C569.375 927.445 613.896 890.606 647.418 821.641C728.43 654.554 714.113 361.41 615.642 166.214H615.817C740.303 357.045 775.396 646.697 694.384 813.784C664.005 876.114 621.578 912.779 573.74 923.953Z" fill="url(#paint42_linear_3_1)"/>
<path d="M573.739 923.953L557.502 927.445C546.677 929.191 532.535 931.635 521.71 933.032C569.375 927.445 613.896 890.605 647.418 821.641C728.43 654.554 714.113 361.41 615.642 166.214H615.817C740.302 357.045 775.396 646.697 694.384 813.784C664.005 876.114 621.578 912.779 573.739 923.953ZM575.485 923.429C623.15 912.081 665.576 875.59 695.781 813.086C776.967 645.65 740.826 355.474 614.944 164.817C713.066 360.188 726.859 654.205 645.672 821.641C612.15 890.78 567.629 927.619 519.964 933.032C531.138 931.46 546.328 929.365 557.502 927.27L575.485 923.429Z" fill="url(#paint43_linear_3_1)"/>
<path d="M672.56 888.86C659.989 894.447 643.403 901.954 630.658 906.843L613.896 912.779C659.466 897.764 698.924 861.798 726.684 804.531C807.696 637.444 758.111 351.808 615.992 165.865H616.166C781.507 342.38 849.948 620.508 768.936 787.595C745.366 835.783 712.018 869.48 672.56 888.86Z" fill="url(#paint44_linear_3_1)"/>
<path d="M672.56 888.86C659.989 894.447 643.403 901.954 630.657 906.843L613.896 912.779C659.465 897.764 698.924 861.797 726.684 804.531C807.696 637.444 758.111 351.808 615.991 165.865H616.166C781.507 342.379 849.948 620.508 768.936 787.595C745.366 835.783 712.018 869.48 672.56 888.86ZM674.48 887.987C713.764 868.607 746.762 834.91 769.983 787.071C851.17 619.635 781.681 341.157 614.944 164.992C815.029 442.946 813.458 834.735 611.976 913.477L630.657 907.017C643.926 901.43 661.56 894.272 674.48 887.987Z" fill="url(#paint45_linear_3_1)"/>
<path d="M774.872 821.466C736.81 851.846 736.81 851.846 715.51 865.289C749.032 844.338 776.967 813.435 796.871 772.231C877.883 605.144 796.871 333.999 615.991 165.865C615.991 165.865 615.991 165.865 616.166 165.865C816.076 319.857 912.452 579.653 831.266 746.914C816.949 776.77 797.744 801.562 774.872 821.466Z" fill="url(#paint46_linear_3_1)"/>
<path d="M774.872 821.466C736.811 851.845 736.811 851.845 715.51 865.289C749.032 844.338 776.967 813.435 796.871 772.23C877.883 605.144 796.871 333.999 615.991 165.864C615.991 165.864 615.991 165.864 616.166 165.864C816.077 319.857 912.453 579.653 831.266 746.914C816.95 776.77 797.744 801.562 774.872 821.466ZM776.618 819.895C799.141 800.166 817.997 775.548 832.314 746.041C913.5 578.605 816.251 318.46 614.944 164.817C795.998 333.3 876.835 605.493 795.649 772.929C775.571 814.482 747.286 845.56 713.415 866.511C751.477 841.021 755.492 838.402 776.618 819.895Z" fill="url(#paint47_linear_3_1)"/>
<path d="M862.344 720.027L853.964 732.772C842.615 748.137 826.902 768.215 814.505 782.706C829.346 766.294 842.091 747.438 852.392 726.312C933.404 559.226 827.775 308.508 616.341 165.515C616.341 165.515 616.341 165.515 616.341 165.341C840.869 291.049 957.323 527.799 876.312 694.885C872.121 703.79 867.407 712.17 862.344 720.027Z" fill="url(#paint48_linear_3_1)"/>
<path d="M862.344 720.027L853.963 732.772C842.615 748.136 826.901 768.215 814.505 782.706C829.345 766.294 842.091 747.438 852.392 726.312C933.404 559.225 827.774 308.508 616.34 165.515C616.34 165.515 616.34 165.515 616.34 165.341C840.869 291.049 957.323 527.798 876.311 694.885C872.121 703.789 867.407 712.17 862.344 720.027ZM863.741 717.932C868.455 710.424 872.994 702.393 877.01 694.187C958.196 526.751 840.869 289.826 615.118 164.817C826.901 307.984 932.705 559.924 851.519 727.36C841.043 748.835 827.949 768.04 812.759 784.627C825.679 769.437 842.265 748.835 853.963 732.772L863.741 717.932Z" fill="url(#paint49_linear_3_1)"/>
<path d="M918.389 595.367C903.548 640.587 902.675 643.38 890.454 669.395C969.894 502.482 847.678 277.43 616.341 165.515C616.341 165.515 616.341 165.515 616.341 165.341C837.203 250.717 963.609 435.962 918.389 595.367Z" fill="url(#paint50_linear_3_1)"/>
<path d="M918.389 595.366C903.548 640.586 902.675 643.38 890.453 669.394C969.894 502.482 847.678 277.43 616.34 165.515C616.34 165.515 616.34 165.515 616.34 165.341C837.202 250.717 963.608 435.962 918.389 595.366ZM919.087 592.922C964.831 383.409 783.776 231.337 615.118 164.817C847.503 277.43 970.243 504.228 889.406 671.664C905.294 634.825 912.627 618.064 919.087 592.922Z" fill="url(#paint51_linear_3_1)"/>
<path d="M936.023 468.96L935.848 477.865C934.626 497.07 932.531 522.561 930.087 541.766C954.355 391.615 827.6 232.909 616.341 165.166C616.341 165.166 616.341 165.166 616.341 164.992C812.41 210.037 936.372 335.047 936.023 468.96Z" fill="url(#paint52_linear_3_1)"/>
<path d="M936.023 468.96L935.848 477.865C934.626 497.07 932.531 522.561 930.087 541.766C954.355 391.615 827.6 232.909 616.341 165.166C616.341 165.166 616.341 165.166 616.341 164.992C812.41 210.037 936.372 335.047 936.023 468.96ZM936.023 466.691C923.103 250.368 687.051 180.88 614.944 164.643C827.6 232.734 954.879 393.012 929.737 544.036C932.182 524.307 934.801 497.768 935.848 477.865L936.023 466.691Z" fill="url(#paint53_linear_3_1)"/>
<path d="M922.579 356.522L929.388 388.996L933.578 420.074C921.357 299.08 801.061 195.546 616.515 165.166V164.992C784.3 177.039 897.612 254.035 922.579 356.522Z" fill="url(#paint54_linear_3_1)"/>
<path d="M922.579 356.521L929.388 388.996L933.578 420.074C921.357 299.08 801.061 195.545 616.515 165.166V164.991C784.3 177.038 897.612 254.035 922.579 356.521ZM922.055 354.601C896.739 252.463 783.078 176.166 614.944 164.817C800.887 195.545 921.881 300.127 933.753 422.169L929.214 388.996C927.118 378.52 924.674 364.727 922.055 354.601Z" fill="url(#paint55_linear_3_1)"/>
<path d="M888.533 262.59C894.993 276.906 903.199 296.112 908.786 310.778L910.008 314.27C868.804 216.671 769.984 166.388 616.341 164.817V164.642C755.842 150.849 853.614 190.657 888.533 262.59Z" fill="url(#paint56_linear_3_1)"/>
<path d="M888.533 262.59C894.993 276.906 903.199 296.112 908.786 310.778L910.008 314.27C868.804 216.671 769.984 166.388 616.341 164.817V164.642C755.841 150.849 853.614 190.657 888.533 262.59ZM887.835 261.018C852.741 189.26 754.619 150.151 614.944 164.817C771.904 165.515 879.978 226.274 910.707 316.19L908.786 310.778C902.85 295.763 894.819 275.684 887.835 261.018Z" fill="url(#paint57_linear_3_1)"/>
<path d="M842.615 187.34L843.313 188.387C851.694 200.434 862.693 216.671 870.55 229.068C834.758 168.483 744.318 141.596 616.341 164.468C616.341 164.468 616.341 164.293 616.166 164.293C728.43 130.073 808.045 141.421 842.615 187.34Z" fill="url(#paint58_linear_3_1)"/>
<path d="M842.615 187.34L843.313 188.387C851.693 200.434 862.693 216.672 870.55 229.068C834.758 168.484 744.318 141.596 616.34 164.468C616.34 164.468 616.34 164.293 616.166 164.293C728.43 130.073 808.045 141.421 842.615 187.34ZM841.742 186.292C807.347 140.548 727.382 129.724 615.118 164.817C744.143 141.771 835.456 169.357 871.248 230.465C863.042 217.719 852.043 200.783 843.313 188.387L841.742 186.292Z" fill="url(#paint59_linear_3_1)"/>
<path d="M789.538 127.978C799.315 137.755 812.235 151.024 821.489 161.325C781.332 122.914 719.875 123.787 616.166 164.293C616.166 164.293 616.166 164.119 615.991 164.119C702.415 112.788 762.651 102.661 789.538 127.978Z" fill="url(#paint60_linear_3_1)"/>
<path d="M789.538 127.978C799.315 137.755 812.235 151.024 821.489 161.325C781.332 122.914 719.875 123.787 616.166 164.293C616.166 164.293 616.166 164.119 615.991 164.119C702.416 112.788 762.651 102.662 789.538 127.978ZM789.014 127.454C762.127 102.138 701.717 112.613 614.944 164.643C717.605 122.391 790.411 124.66 822.362 162.373C812.585 151.723 799.49 137.58 789.014 127.454Z" fill="url(#paint61_linear_3_1)"/>
<defs>
<linearGradient id="paint0_linear_3_1" x1="702.154" y1="93.9082" x2="702.154" y2="164.119" gradientUnits="userSpaceOnUse">
<stop stop-color="#9045EB"/>
<stop offset="1" stop-color="#432AFF"/>
</linearGradient>
<linearGradient id="paint1_linear_3_1" x1="701.979" y1="93.1938" x2="701.979" y2="164.642" gradientUnits="userSpaceOnUse">
<stop stop-color="#9045EB"/>
<stop offset="1" stop-color="#432AFF"/>
</linearGradient>
<linearGradient id="paint2_linear_3_1" x1="673.869" y1="60.6118" x2="673.869" y2="163.944" gradientUnits="userSpaceOnUse">
<stop stop-color="#9045EB"/>
<stop offset="1" stop-color="#432AFF"/>
</linearGradient>
<linearGradient id="paint3_linear_3_1" x1="674.044" y1="59.7969" x2="674.044" y2="164.817" gradientUnits="userSpaceOnUse">
<stop stop-color="#9045EB"/>
<stop offset="1" stop-color="#432AFF"/>
</linearGradient>
<linearGradient id="paint4_linear_3_1" x1="644.45" y1="32.2998" x2="644.45" y2="163.769" gradientUnits="userSpaceOnUse">
<stop stop-color="#9045EB"/>
<stop offset="1" stop-color="#432AFF"/>
</linearGradient>
<linearGradient id="paint5_linear_3_1" x1="644.974" y1="31.7764" x2="644.974" y2="164.817" gradientUnits="userSpaceOnUse">
<stop stop-color="#9045EB"/>
<stop offset="1" stop-color="#432AFF"/>
</linearGradient>
<linearGradient id="paint6_linear_3_1" x1="600.2" y1="12.396" x2="600.2" y2="163.769" gradientUnits="userSpaceOnUse">
<stop stop-color="#9045EB"/>
<stop offset="1" stop-color="#432AFF"/>
</linearGradient>
<linearGradient id="paint7_linear_3_1" x1="599.94" y1="12.0469" x2="599.94" y2="164.817" gradientUnits="userSpaceOnUse">
<stop stop-color="#9045EB"/>
<stop offset="1" stop-color="#432AFF"/>
</linearGradient>
<linearGradient id="paint8_linear_3_1" x1="559.685" y1="1.39697" x2="559.685" y2="163.595" gradientUnits="userSpaceOnUse">
<stop stop-color="#9045EB"/>
<stop offset="1" stop-color="#432AFF"/>
</linearGradient>
<linearGradient id="paint9_linear_3_1" x1="558.986" y1="1.39697" x2="558.986" y2="164.817" gradientUnits="userSpaceOnUse">
<stop stop-color="#9045EB"/>
<stop offset="1" stop-color="#432AFF"/>
</linearGradient>
<linearGradient id="paint10_linear_3_1" x1="519.615" y1="0" x2="519.615" y2="163.595" gradientUnits="userSpaceOnUse">
<stop stop-color="#9045EB"/>
<stop offset="1" stop-color="#432AFF"/>
</linearGradient>
<linearGradient id="paint11_linear_3_1" x1="518.917" y1="0" x2="518.917" y2="164.817" gradientUnits="userSpaceOnUse">
<stop stop-color="#9045EB"/>
<stop offset="1" stop-color="#432AFF"/>
</linearGradient>
<linearGradient id="paint12_linear_3_1" x1="473.872" y1="4.91895" x2="473.872" y2="163.595" gradientUnits="userSpaceOnUse">
<stop stop-color="#9045EB"/>
<stop offset="1" stop-color="#432AFF"/>
</linearGradient>
<linearGradient id="paint13_linear_3_1" x1="473.348" y1="4.50098" x2="473.348" y2="164.643" gradientUnits="userSpaceOnUse">
<stop stop-color="#9045EB"/>
<stop offset="1" stop-color="#432AFF"/>
</linearGradient>
<linearGradient id="paint14_linear_3_1" x1="423.414" y1="21.043" x2="423.414" y2="163.77" gradientUnits="userSpaceOnUse">
<stop stop-color="#9045EB"/>
<stop offset="1" stop-color="#432AFF"/>
</linearGradient>
<linearGradient id="paint15_linear_3_1" x1="422.89" y1="20.5786" x2="422.89" y2="164.817" gradientUnits="userSpaceOnUse">
<stop stop-color="#9045EB"/>
<stop offset="1" stop-color="#432AFF"/>
</linearGradient>
<linearGradient id="paint16_linear_3_1" x1="373.131" y1="47.3086" x2="373.131" y2="163.944" gradientUnits="userSpaceOnUse">
<stop stop-color="#9045EB"/>
<stop offset="1" stop-color="#432AFF"/>
</linearGradient>
<linearGradient id="paint17_linear_3_1" x1="372.781" y1="46.7363" x2="372.781" y2="164.817" gradientUnits="userSpaceOnUse">
<stop stop-color="#9045EB"/>
<stop offset="1" stop-color="#432AFF"/>
</linearGradient>
<linearGradient id="paint18_linear_3_1" x1="333.236" y1="79.5967" x2="333.236" y2="251.765" gradientUnits="userSpaceOnUse">
<stop stop-color="#9045EB"/>
<stop offset="1" stop-color="#432AFF"/>
</linearGradient>
<linearGradient id="paint19_linear_3_1" x1="333.323" y1="78.9678" x2="333.323" y2="254.209" gradientUnits="userSpaceOnUse">
<stop stop-color="#9045EB"/>
<stop offset="1" stop-color="#432AFF"/>
</linearGradient>
<linearGradient id="paint20_linear_3_1" x1="310.975" y1="112.896" x2="310.975" y2="379.044" gradientUnits="userSpaceOnUse">
<stop stop-color="#9045EB"/>
<stop offset="1" stop-color="#432AFF"/>
</linearGradient>
<linearGradient id="paint21_linear_3_1" x1="311.499" y1="112.28" x2="311.499" y2="381.488" gradientUnits="userSpaceOnUse">
<stop stop-color="#9045EB"/>
<stop offset="1" stop-color="#432AFF"/>
</linearGradient>
<linearGradient id="paint22_linear_3_1" x1="306.686" y1="142.692" x2="306.686" y2="502.133" gradientUnits="userSpaceOnUse">
<stop stop-color="#9045EB"/>
<stop offset="1" stop-color="#432AFF"/>
</linearGradient>
<linearGradient id="paint23_linear_3_1" x1="307.472" y1="142.405" x2="307.472" y2="504.403" gradientUnits="userSpaceOnUse">
<stop stop-color="#9045EB"/>
<stop offset="1" stop-color="#432AFF"/>
</linearGradient>
<linearGradient id="paint24_linear_3_1" x1="308.867" y1="160.544" x2="308.867" y2="609.858" gradientUnits="userSpaceOnUse">
<stop stop-color="#9045EB"/>
<stop offset="1" stop-color="#432AFF"/>
</linearGradient>
<linearGradient id="paint25_linear_3_1" x1="309.479" y1="160.364" x2="309.479" y2="611.778" gradientUnits="userSpaceOnUse">
<stop stop-color="#9045EB"/>
<stop offset="1" stop-color="#432AFF"/>
</linearGradient>
<linearGradient id="paint26_linear_3_1" x1="318.894" y1="164.992" x2="318.894" y2="697.854" gradientUnits="userSpaceOnUse">
<stop stop-color="#9045EB"/>
<stop offset="1" stop-color="#432AFF"/>
</linearGradient>
<linearGradient id="paint27_linear_3_1" x1="319.68" y1="164.817" x2="319.68" y2="699.25" gradientUnits="userSpaceOnUse">
<stop stop-color="#9045EB"/>
<stop offset="1" stop-color="#432AFF"/>
</linearGradient>
<linearGradient id="paint28_linear_3_1" x1="337.975" y1="165.166" x2="337.975" y2="767.342" gradientUnits="userSpaceOnUse">
<stop stop-color="#9045EB"/>
<stop offset="1" stop-color="#432AFF"/>
</linearGradient>
<linearGradient id="paint29_linear_3_1" x1="337.677" y1="164.817" x2="337.677" y2="768.389" gradientUnits="userSpaceOnUse">
<stop stop-color="#9045EB"/>
<stop offset="1" stop-color="#432AFF"/>
</linearGradient>
<linearGradient id="paint30_linear_3_1" x1="363.514" y1="165.341" x2="363.514" y2="822.863" gradientUnits="userSpaceOnUse">
<stop stop-color="#9045EB"/>
<stop offset="1" stop-color="#432AFF"/>
</linearGradient>
<linearGradient id="paint31_linear_3_1" x1="363.829" y1="164.817" x2="363.829" y2="823.91" gradientUnits="userSpaceOnUse">
<stop stop-color="#9045EB"/>
<stop offset="1" stop-color="#432AFF"/>
</linearGradient>
<linearGradient id="paint32_linear_3_1" x1="395.912" y1="165.516" x2="395.912" y2="864.94" gradientUnits="userSpaceOnUse">
<stop stop-color="#9045EB"/>
<stop offset="1" stop-color="#432AFF"/>
</linearGradient>
<linearGradient id="paint33_linear_3_1" x1="395.653" y1="164.643" x2="395.653" y2="865.464" gradientUnits="userSpaceOnUse">
<stop stop-color="#9045EB"/>
<stop offset="1" stop-color="#432AFF"/>
</linearGradient>
<linearGradient id="paint34_linear_3_1" x1="428.927" y1="165.69" x2="428.927" y2="896.07" gradientUnits="userSpaceOnUse">
<stop stop-color="#9045EB"/>
<stop offset="1" stop-color="#432AFF"/>
</linearGradient>
<linearGradient id="paint35_linear_3_1" x1="428.783" y1="164.817" x2="428.783" y2="896.605" gradientUnits="userSpaceOnUse">
<stop stop-color="#9045EB"/>
<stop offset="1" stop-color="#432AFF"/>
</linearGradient>
<linearGradient id="paint36_linear_3_1" x1="459.642" y1="165.865" x2="459.642" y2="918.929" gradientUnits="userSpaceOnUse">
<stop stop-color="#9045EB"/>
<stop offset="1" stop-color="#432AFF"/>
</linearGradient>
<linearGradient id="paint37_linear_3_1" x1="459.118" y1="164.643" x2="459.118" y2="919.279" gradientUnits="userSpaceOnUse">
<stop stop-color="#9045EB"/>
<stop offset="1" stop-color="#432AFF"/>
</linearGradient>
<linearGradient id="paint38_linear_3_1" x1="497.407" y1="165.865" x2="497.407" y2="932.506" gradientUnits="userSpaceOnUse">
<stop stop-color="#9045EB"/>
<stop offset="1" stop-color="#432AFF"/>
</linearGradient>
<linearGradient id="paint39_linear_3_1" x1="497.278" y1="164.817" x2="497.278" y2="932.656" gradientUnits="userSpaceOnUse">
<stop stop-color="#9045EB"/>
<stop offset="1" stop-color="#432AFF"/>
</linearGradient>
<linearGradient id="paint40_linear_3_1" x1="557.105" y1="166.039" x2="557.105" y2="935.716" gradientUnits="userSpaceOnUse">
<stop stop-color="#9045EB"/>
<stop offset="1" stop-color="#432AFF"/>
</linearGradient>
<linearGradient id="paint41_linear_3_1" x1="557.73" y1="164.817" x2="557.73" y2="935.924" gradientUnits="userSpaceOnUse">
<stop stop-color="#9045EB"/>
<stop offset="1" stop-color="#432AFF"/>
</linearGradient>
<linearGradient id="paint42_linear_3_1" x1="629.849" y1="166.214" x2="629.849" y2="933.032" gradientUnits="userSpaceOnUse">
<stop stop-color="#9045EB"/>
<stop offset="1" stop-color="#432AFF"/>
</linearGradient>
<linearGradient id="paint43_linear_3_1" x1="629.549" y1="164.817" x2="629.549" y2="933.032" gradientUnits="userSpaceOnUse">
<stop stop-color="#9045EB"/>
<stop offset="1" stop-color="#432AFF"/>
</linearGradient>
<linearGradient id="paint44_linear_3_1" x1="708.448" y1="165.865" x2="708.448" y2="912.779" gradientUnits="userSpaceOnUse">
<stop stop-color="#9045EB"/>
<stop offset="1" stop-color="#432AFF"/>
</linearGradient>
<linearGradient id="paint45_linear_3_1" x1="707.948" y1="164.992" x2="707.948" y2="913.477" gradientUnits="userSpaceOnUse">
<stop stop-color="#9045EB"/>
<stop offset="1" stop-color="#432AFF"/>
</linearGradient>
<linearGradient id="paint46_linear_3_1" x1="738.026" y1="165.865" x2="738.026" y2="865.289" gradientUnits="userSpaceOnUse">
<stop stop-color="#9045EB"/>
<stop offset="1" stop-color="#432AFF"/>
</linearGradient>
<linearGradient id="paint47_linear_3_1" x1="737.953" y1="164.817" x2="737.953" y2="866.511" gradientUnits="userSpaceOnUse">
<stop stop-color="#9045EB"/>
<stop offset="1" stop-color="#432AFF"/>
</linearGradient>
<linearGradient id="paint48_linear_3_1" x1="759.205" y1="165.341" x2="759.205" y2="782.706" gradientUnits="userSpaceOnUse">
<stop stop-color="#9045EB"/>
<stop offset="1" stop-color="#432AFF"/>
</linearGradient>
<linearGradient id="paint49_linear_3_1" x1="758.93" y1="164.817" x2="758.93" y2="784.627" gradientUnits="userSpaceOnUse">
<stop stop-color="#9045EB"/>
<stop offset="1" stop-color="#432AFF"/>
</linearGradient>
<linearGradient id="paint50_linear_3_1" x1="771.925" y1="165.341" x2="771.925" y2="669.395" gradientUnits="userSpaceOnUse">
<stop stop-color="#9045EB"/>
<stop offset="1" stop-color="#432AFF"/>
</linearGradient>
<linearGradient id="paint51_linear_3_1" x1="771.314" y1="164.817" x2="771.314" y2="671.664" gradientUnits="userSpaceOnUse">
<stop stop-color="#9045EB"/>
<stop offset="1" stop-color="#432AFF"/>
</linearGradient>
<linearGradient id="paint52_linear_3_1" x1="776.182" y1="164.992" x2="776.182" y2="541.766" gradientUnits="userSpaceOnUse">
<stop stop-color="#9045EB"/>
<stop offset="1" stop-color="#432AFF"/>
</linearGradient>
<linearGradient id="paint53_linear_3_1" x1="775.484" y1="164.643" x2="775.484" y2="544.036" gradientUnits="userSpaceOnUse">
<stop stop-color="#9045EB"/>
<stop offset="1" stop-color="#432AFF"/>
</linearGradient>
<linearGradient id="paint54_linear_3_1" x1="775.047" y1="164.992" x2="775.047" y2="420.074" gradientUnits="userSpaceOnUse">
<stop stop-color="#9045EB"/>
<stop offset="1" stop-color="#432AFF"/>
</linearGradient>
<linearGradient id="paint55_linear_3_1" x1="774.348" y1="164.817" x2="774.348" y2="422.169" gradientUnits="userSpaceOnUse">
<stop stop-color="#9045EB"/>
<stop offset="1" stop-color="#432AFF"/>
</linearGradient>
<linearGradient id="paint56_linear_3_1" x1="763.175" y1="161.933" x2="763.175" y2="314.27" gradientUnits="userSpaceOnUse">
<stop stop-color="#9045EB"/>
<stop offset="1" stop-color="#432AFF"/>
</linearGradient>
<linearGradient id="paint57_linear_3_1" x1="762.825" y1="161.761" x2="762.825" y2="316.19" gradientUnits="userSpaceOnUse">
<stop stop-color="#9045EB"/>
<stop offset="1" stop-color="#432AFF"/>
</linearGradient>
<linearGradient id="paint58_linear_3_1" x1="743.358" y1="144.394" x2="743.358" y2="229.068" gradientUnits="userSpaceOnUse">
<stop stop-color="#9045EB"/>
<stop offset="1" stop-color="#432AFF"/>
</linearGradient>
<linearGradient id="paint59_linear_3_1" x1="743.183" y1="144.042" x2="743.183" y2="230.465" gradientUnits="userSpaceOnUse">
<stop stop-color="#9045EB"/>
<stop offset="1" stop-color="#432AFF"/>
</linearGradient>
<linearGradient id="paint60_linear_3_1" x1="718.74" y1="114.667" x2="718.74" y2="164.293" gradientUnits="userSpaceOnUse">
<stop stop-color="#9045EB"/>
<stop offset="1" stop-color="#432AFF"/>
</linearGradient>
<linearGradient id="paint61_linear_3_1" x1="718.653" y1="114.269" x2="718.653" y2="164.643" gradientUnits="userSpaceOnUse">
<stop stop-color="#9045EB"/>
<stop offset="1" stop-color="#432AFF"/>
</linearGradient>
</defs>
</svg>
