<svg width="1000" height="1000" viewBox="0 0 1000 1000" fill="none" xmlns="http://www.w3.org/2000/svg">
<rect width="1000" height="1000" rx="500" fill="#2FA867"/>
<g clip-path="url(#clip0_401_2)">
<path fill-rule="evenodd" clip-rule="evenodd" d="M849.146 763.206C732.741 716.589 705.988 454.94 719.629 343.781C646.624 385.39 308.798 331.982 150 232.02C214.332 443.097 552.517 452.189 689.393 424.184C694.156 549.399 741.705 766.795 849.146 763.206Z" fill="white"/>
<path fill-rule="evenodd" clip-rule="evenodd" d="M683.093 513.959C665.046 518.257 524.551 549.83 419.961 531.626C308.012 512.154 244.926 398.373 244.926 398.373C361.161 457.369 614.954 468.889 675.171 441.96L675.751 448.407C677.314 470.4 679.764 492.28 683.093 513.959Z" fill="white"/>
<path fill-rule="evenodd" clip-rule="evenodd" d="M705.715 616.736L706.944 621.829C500.256 691.422 409.871 663.331 346.546 551.055C420.968 583.788 635.663 568.829 688.454 545.359C691.868 563.22 695.846 580.671 700.268 597.35C701.976 603.711 703.785 610.288 705.715 616.736Z" fill="white"/>
<path fill-rule="evenodd" clip-rule="evenodd" d="M715.327 652.177L747.253 720.286C609.985 790.222 506.966 706.187 482.261 683.899C561.873 698.923 658.405 684.415 715.327 652.177Z" fill="white"/>
<path fill-rule="evenodd" clip-rule="evenodd" d="M786.761 762.096C764.19 765.966 707.695 773.855 695.146 755.453C718.093 750.487 750.259 736.815 759.307 732.859C767.474 743.982 776.695 753.802 786.761 762.096Z" fill="white"/>
</g>
<defs>
<clipPath id="clip0_401_2">
<rect width="700" height="535.161" fill="white" transform="translate(150 232)"/>
</clipPath>
</defs>
</svg>
