<svg width="1000" height="1000" viewBox="0 0 1000 1000" fill="none" xmlns="http://www.w3.org/2000/svg">
<rect width="1000" height="1000" rx="500" fill="#3410FF"/>
<g clip-path="url(#clip0_1441_160)">
<path d="M731.299 656.848C731.152 660.18 728.078 663.206 722.075 665.926C716.379 668.712 708.531 671.162 698.529 673.274C688.524 675.453 676.986 677.294 663.914 678.801C651.15 680.373 637.624 681.645 623.337 682.617C609.357 683.654 595.08 684.391 580.509 684.828C565.931 685.332 552.142 685.57 539.137 685.544C526.753 685.519 512.983 685.291 497.829 684.86C482.981 684.497 467.988 683.932 452.849 683.17C437.709 682.406 423.042 681.443 408.849 680.281C394.963 679.187 382.788 677.896 372.326 676.41C368.017 675.801 361.717 674.721 353.424 673.172C345.128 671.689 336.84 670.04 328.559 668.224C319.966 666.474 312.456 664.726 306.03 662.98C299.294 661.234 295.793 659.862 295.527 658.862L299.282 657.969C311.206 661.458 323.304 664.482 335.579 667.039C347.54 669.662 360.446 671.921 374.297 673.815C388.145 675.775 403.092 677.404 419.137 678.702C435.492 680.002 453.404 681.105 472.872 682.01C453.099 680.971 435.191 679.802 419.145 678.503C403.408 677.271 388.768 675.71 375.227 673.815C361.682 671.989 348.929 669.764 336.967 667.141C325.006 664.519 313.221 661.397 301.613 657.774L308.155 656.889C305.386 656.482 302.938 655.81 300.812 654.874C298.682 654.004 297.634 653.202 297.666 652.469C297.721 651.203 300.381 650.575 305.644 650.586C308.431 650.592 311.214 650.697 313.991 650.903C316.766 651.175 319.385 651.48 321.847 651.819C331.004 654.836 340.176 657.519 349.363 659.871C358.237 662.287 367.9 664.372 378.35 666.126C389.109 667.947 400.809 669.471 413.451 670.695C426.402 671.921 441.377 672.918 458.375 673.685C442.615 672.919 428.414 671.958 415.768 670.8C403.433 669.642 392.04 668.186 381.588 666.432C371.444 664.745 361.931 662.762 353.052 660.478C344.482 658.194 336.392 655.546 328.783 652.532C335.248 653.412 341.085 654.456 346.296 655.666L361 659.295C366.211 660.504 371.423 661.68 376.638 662.824C381.848 664.034 387.686 665.079 394.15 665.958L391.324 666.852C412.58 669.361 435.414 671.206 459.823 672.389C484.543 673.638 508.977 674.288 533.127 674.337C539.938 674.351 546.753 674.297 553.571 674.178C560.388 674.059 567.055 673.84 573.572 673.519C572.644 673.517 572.183 673.449 572.188 673.317C572.196 673.117 572.357 673.018 572.666 673.018C565.848 673.137 559.032 673.223 552.217 673.275C545.399 673.396 538.275 673.448 530.844 673.432C508.551 673.388 486.279 672.876 464.026 671.897C442.081 670.987 422.485 669.448 405.24 667.28C414.175 668.298 423.735 669.183 433.921 669.937C444.725 670.692 455.848 671.282 467.286 671.704C478.722 672.194 490.01 672.517 501.151 672.673C512.289 672.895 522.966 673.017 533.184 673.037C548.665 673.069 564.625 672.802 581.061 672.235C597.806 671.669 613.179 670.635 627.18 669.131C641.49 667.627 653.656 665.586 663.679 663.007C673.697 660.497 680.032 657.277 682.682 653.351C683.607 653.419 684.999 653.455 686.857 653.46L691.501 653.47C693.359 653.473 694.903 653.576 696.133 653.779C697.362 653.981 697.962 654.448 697.929 655.181C697.906 655.714 697.572 656.247 696.931 656.778C696.284 657.377 695.64 657.942 694.997 658.474L699.634 658.683C700.27 658.284 701.379 657.687 702.963 656.89C704.546 656.093 706.44 655.266 708.646 654.403C710.849 653.609 713.048 652.913 715.241 652.318C717.743 651.723 720.234 651.428 722.711 651.433C724.878 651.437 726.572 651.641 727.793 652.044C729.011 652.513 729.762 653.047 730.046 653.647C730.638 654.248 730.922 654.849 730.896 655.448C731.179 656.048 731.314 656.515 731.299 656.848Z" fill="white"/>
<path d="M331.173 389.662C320.905 389.662 312.025 386.055 304.532 378.839C297.317 371.347 293.709 362.466 293.709 352.199C293.709 341.653 297.317 332.773 304.532 325.558C312.025 318.343 320.905 314.735 331.173 314.735C341.718 314.735 350.598 318.343 357.813 325.558C365.029 332.773 368.636 341.653 368.636 352.199C368.636 362.466 365.029 371.347 357.813 378.839C350.598 386.055 341.718 389.662 331.173 389.662ZM299.121 630.261V472.082H259.992V423.796H362.808V630.261H299.121ZM402.116 630.261V423.796H457.478L465.387 451.269C470.105 443.499 477.875 436.006 488.698 428.791C499.521 421.575 512.564 417.968 527.826 417.968C544.2 417.968 557.242 420.882 566.955 426.709C576.945 432.537 584.299 441.139 589.017 452.517C597.065 441.139 607.193 432.537 619.404 426.709C631.891 420.882 645.351 417.968 659.781 417.968C686.144 417.968 704.321 425.461 714.311 440.446C724.301 455.154 729.296 476.522 729.296 504.55V630.261H666.025V520.368C666.025 510.655 665.469 501.775 664.36 493.727C663.25 485.679 660.474 479.297 656.034 474.579C651.595 469.584 644.24 467.087 633.973 467.087C621.208 467.087 611.911 471.665 606.083 480.823C600.256 489.704 597.342 503.162 597.342 521.2V630.261H533.654V520.368C533.654 510.655 533.099 501.775 531.989 493.727C531.156 485.679 528.52 479.297 524.08 474.579C519.917 469.584 512.841 467.087 502.851 467.087C489.808 467.087 480.234 471.804 474.129 481.239C468.301 490.674 465.387 504.411 465.387 522.449V630.261H402.116Z" fill="white"/>
</g>
<defs>
<clipPath id="clip0_1441_160">
<rect width="500" height="371.545" fill="white" transform="translate(250 314)"/>
</clipPath>
</defs>
</svg>
