<svg width="850" height="283" viewBox="0 0 850 283" fill="none" xmlns="http://www.w3.org/2000/svg">
<g clip-path="url(#clip0_222_7)">
<path d="M39.2153 75.481C34.2548 75.481 29.9646 73.7381 26.3447 70.2523C22.8589 66.6324 21.116 62.3422 21.116 57.3816C21.116 52.287 22.8589 47.9967 26.3447 44.5109C29.9646 41.0251 34.2548 39.2822 39.2153 39.2822C44.31 39.2822 48.6002 41.0251 52.086 44.5109C55.5718 47.9967 57.3147 52.287 57.3147 57.3816C57.3147 62.3422 55.5718 66.6324 52.086 70.2523C48.6002 73.7381 44.31 75.481 39.2153 75.481ZM23.7303 191.719V115.3H4.82654V91.9715H54.4993V191.719H23.7303ZM73.4895 191.719V91.9715H100.236L104.057 105.244C106.337 101.49 110.09 97.8706 115.319 94.3848C120.682 90.899 127.184 89.1561 134.826 89.1561C147.696 89.1561 156.478 92.7759 161.17 100.016C165.997 107.121 168.41 117.445 168.41 130.986V191.719H137.842V138.628C137.842 133.935 137.574 129.645 137.038 125.757C136.501 121.869 135.161 118.785 133.016 116.506C131.005 114.093 127.519 112.886 122.559 112.886C116.124 112.886 111.431 115.233 108.482 119.925C105.532 124.483 104.057 131.321 104.057 140.438V191.719H73.4895ZM230.605 191.719C222.427 191.719 215.924 191.049 211.098 189.708C206.271 188.233 202.785 185.485 200.64 181.463C198.629 177.307 197.624 171.341 197.624 163.565V115.3H181.133V91.9715H197.624V67.0346H228.191V91.9715H249.911V115.3H228.191V155.52C228.191 160.213 229.063 163.296 230.806 164.771C232.683 166.112 236.102 166.782 241.062 166.782H249.911V191.719H230.605ZM314.245 194.132C303.52 194.132 294.001 192.054 285.689 187.898C277.51 183.608 271.075 177.508 266.383 169.598C261.824 161.688 259.545 152.236 259.545 141.242C259.545 130.651 261.958 121.467 266.785 113.691C271.745 105.915 278.248 99.8816 286.292 95.5914C294.47 91.3012 303.386 89.1561 313.039 89.1561C324.032 89.1561 333.417 91.7704 341.193 96.9991C349.103 102.094 355.069 109.199 359.091 118.316C363.114 127.299 364.789 137.689 364.119 149.487H290.314C290.85 156.459 293.398 161.688 297.956 165.173C302.648 168.659 307.81 170.402 313.441 170.402C318.133 170.402 322.155 169.732 325.507 168.391C328.993 166.916 331.674 165.106 333.551 162.961L357.885 171.81C352.656 179.452 346.087 185.083 338.177 188.703C330.401 192.322 322.424 194.132 314.245 194.132ZM290.314 131.388H335.763C335.629 124.953 333.417 120.126 329.127 116.908C324.837 113.557 319.742 111.881 313.843 111.881C308.078 111.881 302.916 113.423 298.358 116.506C293.934 119.59 291.252 124.55 290.314 131.388ZM378.68 191.719V91.9715H402.813L408.243 110.272C411.326 102.228 415.549 96.5969 420.912 93.3792C426.275 90.1616 432.777 88.7538 440.419 89.1561V119.724C438.811 119.456 437.403 119.322 436.196 119.322C434.99 119.188 433.649 119.121 432.174 119.121C424.8 119.121 419.102 120.863 415.08 124.349C411.192 127.835 409.248 133.533 409.248 141.443V191.719H378.68ZM453.506 191.719V91.9715H480.253L484.074 105.244C486.353 101.49 490.107 97.8706 495.336 94.3848C500.698 90.899 507.201 89.1561 514.843 89.1561C527.713 89.1561 536.495 92.7759 541.187 100.016C546.014 107.121 548.427 117.445 548.427 130.986V191.719H517.859V138.628C517.859 133.935 517.591 129.645 517.055 125.757C516.518 121.869 515.178 118.785 513.033 116.506C511.022 114.093 507.536 112.886 502.575 112.886C496.14 112.886 491.448 115.233 488.498 119.925C485.548 124.483 484.074 131.321 484.074 140.438V191.719H453.506ZM568.591 191.719V91.9715H595.338L599.159 105.244C601.438 101.49 605.192 97.8706 610.421 94.3848C615.649 90.899 621.951 89.1561 629.324 89.1561C637.235 89.1561 643.536 90.5638 648.228 93.3792C653.055 96.1947 656.608 100.351 658.887 105.848C662.775 100.351 667.668 96.1947 673.567 93.3792C679.601 90.5638 686.103 89.1561 693.075 89.1561C705.811 89.1561 714.593 92.7759 719.419 100.016C724.246 107.121 726.659 117.445 726.659 130.986V191.719H696.091V138.628C696.091 133.935 695.823 129.645 695.287 125.757C694.75 121.869 693.41 118.785 691.265 116.506C689.119 114.093 685.567 112.886 680.606 112.886C674.439 112.886 669.948 115.098 667.132 119.523C664.317 123.813 662.909 130.315 662.909 139.03V191.719H632.14V138.628C632.14 133.935 631.872 129.645 631.336 125.757C630.933 121.869 629.66 118.785 627.515 116.506C625.503 114.093 622.085 112.886 617.258 112.886C610.957 112.886 606.332 115.166 603.382 119.724C600.567 124.282 599.159 130.919 599.159 139.633V191.719H568.591ZM794.617 194.132C783.892 194.132 774.373 192.054 766.061 187.898C757.882 183.608 751.447 177.508 746.755 169.598C742.196 161.688 739.917 152.236 739.917 141.242C739.917 130.651 742.33 121.467 747.157 113.691C752.117 105.915 758.62 99.8816 766.664 95.5914C774.842 91.3012 783.758 89.1561 793.411 89.1561C804.404 89.1561 813.789 91.7704 821.565 96.9991C829.475 102.094 835.441 109.199 839.464 118.316C843.486 127.299 845.161 137.689 844.491 149.487H770.686C771.222 156.459 773.77 161.688 778.328 165.173C783.02 168.659 788.182 170.402 793.813 170.402C798.505 170.402 802.527 169.732 805.879 168.391C809.365 166.916 812.046 165.106 813.923 162.961L838.257 171.81C833.028 179.452 826.459 185.083 818.549 188.703C810.773 192.322 802.796 194.132 794.617 194.132ZM770.686 131.388H816.135C816.001 124.953 813.789 120.126 809.499 116.908C805.209 113.557 800.114 111.881 794.215 111.881C788.45 111.881 783.288 113.423 778.73 116.506C774.306 119.59 771.624 124.55 770.686 131.388Z" fill="#263238"/>
<path d="M479.869 246.682C479.71 250.786 476.367 254.513 469.841 257.864C463.648 261.296 455.115 264.314 444.24 266.915C433.363 269.599 420.818 271.867 406.606 273.723C392.728 275.66 378.022 277.227 362.489 278.423C347.289 279.701 331.767 280.609 315.924 281.148C300.075 281.767 285.082 282.061 270.943 282.028C257.479 281.998 242.507 281.717 226.032 281.187C209.888 280.739 193.587 280.044 177.127 279.104C160.666 278.163 144.72 276.978 129.289 275.546C114.191 274.199 100.954 272.609 89.5787 270.777C84.8942 270.028 78.0442 268.698 69.028 266.79C60.0087 264.963 50.9974 262.932 41.994 260.695C32.6507 258.54 24.4857 256.386 17.4989 254.236C10.1755 252.085 6.3694 250.395 6.08044 249.163L10.163 248.063C23.1266 252.362 36.2809 256.086 49.6256 259.235C62.6305 262.466 76.6628 265.248 91.7224 267.581C106.779 269.996 123.03 272.003 140.474 273.602C158.255 275.203 177.73 276.561 198.897 277.677C177.399 276.396 157.928 274.956 140.483 273.357C123.373 271.839 107.456 269.915 92.7324 267.583C78.0061 265.333 64.1406 262.592 51.1356 259.361C38.1308 256.13 25.3179 252.285 12.6974 247.823L19.8096 246.732C16.799 246.232 14.1377 245.405 11.8257 244.25C9.51054 243.179 8.37047 242.191 8.40542 241.289C8.46586 239.73 11.3574 238.956 17.0802 238.969C20.1101 238.976 23.1351 239.106 26.1553 239.36C29.1722 239.695 32.0193 240.07 34.6966 240.487C44.6527 244.203 54.6248 247.51 64.6127 250.406C74.2607 253.382 84.7664 255.951 96.1292 258.111C107.826 260.353 120.547 262.23 134.292 263.739C148.373 265.248 164.655 266.476 183.135 267.422C166.001 266.479 150.56 265.295 136.811 263.867C123.4 262.442 111.013 260.648 99.6498 258.489C88.6199 256.411 78.2781 253.966 68.6236 251.154C59.3058 248.341 50.5105 245.079 42.2376 241.367C49.2656 242.45 55.6126 243.736 61.2782 245.226L77.2651 249.696C82.9311 251.186 88.598 252.635 94.2671 254.044C99.9323 255.534 106.279 256.821 113.307 257.904L110.235 259.005C133.345 262.095 158.171 264.369 184.71 265.825C211.586 267.364 238.151 268.164 264.409 268.225C271.814 268.242 279.224 268.176 286.636 268.029C294.048 267.883 301.297 267.612 308.382 267.218C307.373 267.215 306.871 267.132 306.877 266.968C306.886 266.722 307.06 266.6 307.397 266.6C299.984 266.747 292.574 266.853 285.164 266.918C277.752 267.065 270.006 267.129 261.927 267.111C237.689 267.056 213.473 266.424 189.279 265.22C165.42 264.098 144.114 262.202 125.364 259.533C135.079 260.787 145.473 261.877 156.547 262.806C168.295 263.735 180.388 264.461 192.824 264.982C205.258 265.585 217.53 265.983 229.643 266.175C241.753 266.448 253.362 266.598 264.471 266.624C281.302 266.663 298.654 266.333 316.524 265.636C334.731 264.939 351.445 263.665 366.668 261.812C382.225 259.959 395.452 257.446 406.35 254.269C417.243 251.176 424.13 247.211 427.011 242.375C428.016 242.459 429.53 242.503 431.551 242.509L436.6 242.521C438.62 242.525 440.299 242.652 441.635 242.902C442.972 243.151 443.624 243.726 443.589 244.63C443.563 245.285 443.2 245.942 442.503 246.597C441.8 247.334 441.1 248.03 440.4 248.685L445.441 248.943C446.133 248.452 447.34 247.716 449.061 246.735C450.783 245.753 452.842 244.733 455.241 243.671C457.635 242.693 460.026 241.836 462.411 241.102C465.131 240.37 467.839 240.007 470.533 240.012C472.888 240.018 474.73 240.269 476.058 240.765C477.382 241.342 478.199 242.001 478.507 242.739C479.151 243.479 479.46 244.22 479.431 244.958C479.739 245.697 479.885 246.272 479.869 246.682Z" fill="#263238"/>
</g>
<defs>
<clipPath id="clip0_222_7">
<rect width="850" height="282.886" fill="white"/>
</clipPath>
</defs>
</svg>
