<svg width="321" height="50" viewBox="0 0 321 50" fill="none" xmlns="http://www.w3.org/2000/svg">
<g clip-path="url(#clip0_126_21)">
<path d="M6.92042 13.3201C6.04502 13.3201 5.28793 13.0126 4.64912 12.3974C4.03398 11.7586 3.72641 11.0015 3.72641 10.1261C3.72641 9.22708 4.03398 8.46998 4.64912 7.85484C5.28793 7.2397 6.04502 6.93213 6.92042 6.93213C7.81947 6.93213 8.57657 7.2397 9.19171 7.85484C9.80685 8.46998 10.1144 9.22708 10.1144 10.1261C10.1144 11.0015 9.80685 11.7586 9.19171 12.3974C8.57657 13.0126 7.81947 13.3201 6.92042 13.3201ZM4.18777 33.8328V20.347H0.851807V16.2302H9.61758V33.8328H4.18777ZM12.9688 33.8328V16.2302H17.6888L18.3631 18.5725C18.7653 17.91 19.4278 17.2712 20.3505 16.6561C21.2969 16.041 22.4444 15.7334 23.7928 15.7334C26.0641 15.7334 27.6138 16.3722 28.4419 17.6498C29.2936 18.9037 29.7195 20.7255 29.7195 23.1151V33.8328H24.3251V24.4637C24.3251 23.6356 24.2778 22.8785 24.1832 22.1924C24.0886 21.5063 23.852 20.9621 23.4735 20.5599C23.1186 20.134 22.5035 19.9211 21.6281 19.9211C20.4925 19.9211 19.6644 20.3351 19.1439 21.1632C18.6234 21.9676 18.3631 23.1742 18.3631 24.7831V33.8328H12.9688ZM40.695 33.8328C39.2518 33.8328 38.1043 33.7145 37.2526 33.4779C36.4009 33.2176 35.7857 32.7326 35.4072 32.0228C35.0523 31.2894 34.8748 30.2365 34.8748 28.8643V20.347H31.9647V16.2302H34.8748V11.8296H40.2691V16.2302H44.102V20.347H40.2691V27.4447C40.2691 28.2728 40.4229 28.817 40.7305 29.0772C41.0617 29.3138 41.6651 29.4321 42.5404 29.4321H44.102V33.8328H40.695ZM55.4551 34.2586C53.5624 34.2586 51.8826 33.8919 50.4157 33.1585C48.9725 32.4014 47.8368 31.3249 47.0087 29.929C46.2043 28.5331 45.8021 26.8651 45.8021 24.925C45.8021 23.0559 46.228 21.4353 47.0797 20.063C47.9551 18.6908 49.1026 17.6261 50.5221 16.869C51.9654 16.1119 53.5387 15.7334 55.2422 15.7334C57.1822 15.7334 58.8384 16.1947 60.2106 17.1175C61.6065 18.0165 62.6594 19.2705 63.3691 20.8793C64.0789 22.4645 64.3747 24.2981 64.2564 26.3801H51.2319C51.3266 27.6104 51.7761 28.5331 52.5805 29.1482C53.4086 29.7634 54.3195 30.0709 55.3132 30.0709C56.1412 30.0709 56.851 29.9526 57.4425 29.716C58.0576 29.4558 58.5308 29.1364 58.8621 28.7578L63.1562 30.3193C62.2335 31.6679 61.0742 32.6616 59.6783 33.3004C58.3061 33.9392 56.8983 34.2586 55.4551 34.2586ZM51.2319 23.1861H59.2524C59.2288 22.0504 58.8384 21.1987 58.0813 20.6309C57.3242 20.0394 56.4251 19.7436 55.3841 19.7436C54.3668 19.7436 53.4559 20.0157 52.6515 20.5599C51.8707 21.1041 51.3975 21.9794 51.2319 23.1861ZM66.826 33.8328V16.2302H71.0847L72.0429 19.4597C72.5871 18.0402 73.3323 17.0465 74.2787 16.4787C75.2251 15.9108 76.3725 15.6624 77.7211 15.7334V21.1277C77.4372 21.0804 77.1888 21.0567 76.9759 21.0567C76.7629 21.0331 76.5263 21.0212 76.2661 21.0212C74.9648 21.0212 73.9593 21.3288 73.2495 21.944C72.5634 22.5591 72.2203 23.5646 72.2203 24.9605V33.8328H66.826ZM80.0305 33.8328V16.2302H84.7505L85.4248 18.5725C85.827 17.91 86.4895 17.2712 87.4122 16.6561C88.3586 16.041 89.5061 15.7334 90.8546 15.7334C93.1259 15.7334 94.6756 16.3722 95.5037 17.6498C96.3554 18.9037 96.7813 20.7255 96.7813 23.1151V33.8328H91.387V24.4637C91.387 23.6356 91.3396 22.8785 91.245 22.1924C91.1504 21.5063 90.9138 20.9621 90.5352 20.5599C90.1803 20.134 89.5652 19.9211 88.6898 19.9211C87.5542 19.9211 86.7261 20.3351 86.2056 21.1632C85.6851 21.9676 85.4248 23.1742 85.4248 24.7831V33.8328H80.0305ZM100.34 33.8328V16.2302H105.06L105.734 18.5725C106.136 17.91 106.799 17.2712 107.721 16.6561C108.644 16.041 109.756 15.7334 111.057 15.7334C112.453 15.7334 113.565 15.9818 114.393 16.4787C115.245 16.9755 115.872 17.7089 116.274 18.679C116.96 17.7089 117.824 16.9755 118.865 16.4787C119.93 15.9818 121.077 15.7334 122.307 15.7334C124.555 15.7334 126.105 16.3722 126.956 17.6498C127.808 18.9037 128.234 20.7255 128.234 23.1151V33.8328H122.84V24.4637C122.84 23.6356 122.792 22.8785 122.698 22.1924C122.603 21.5063 122.366 20.9621 121.988 20.5599C121.609 20.134 120.982 19.9211 120.107 19.9211C119.019 19.9211 118.226 20.3115 117.729 21.0922C117.232 21.8493 116.984 22.9968 116.984 24.5347V33.8328H111.554V24.4637C111.554 23.6356 111.507 22.8785 111.412 22.1924C111.341 21.5063 111.116 20.9621 110.738 20.5599C110.383 20.134 109.78 19.9211 108.928 19.9211C107.816 19.9211 107 20.3233 106.479 21.1277C105.982 21.9321 105.734 23.1033 105.734 24.6411V33.8328H100.34ZM140.227 34.2586C138.334 34.2586 136.654 33.8919 135.187 33.1585C133.744 32.4014 132.608 31.3249 131.78 29.929C130.976 28.5331 130.574 26.8651 130.574 24.925C130.574 23.0559 131 21.4353 131.851 20.063C132.727 18.6908 133.874 17.6261 135.294 16.869C136.737 16.1119 138.31 15.7334 140.014 15.7334C141.954 15.7334 143.61 16.1947 144.982 17.1175C146.378 18.0165 147.431 19.2705 148.141 20.8793C148.85 22.4645 149.146 24.2981 149.028 26.3801H136.003C136.098 27.6104 136.548 28.5331 137.352 29.1482C138.18 29.7634 139.091 30.0709 140.085 30.0709C140.913 30.0709 141.623 29.9526 142.214 29.716C142.829 29.4558 143.302 29.1364 143.634 28.7578L147.928 30.3193C147.005 31.6679 145.846 32.6616 144.45 33.3004C143.078 33.9392 141.67 34.2586 140.227 34.2586ZM136.003 23.1861H144.024C144 22.0504 143.61 21.1987 142.853 20.6309C142.096 20.0394 141.197 19.7436 140.156 19.7436C139.138 19.7436 138.227 20.0157 137.423 20.5599C136.642 21.1041 136.169 21.9794 136.003 23.1861Z" fill="#570EFF"/>
<path d="M84.6828 43.5322C84.6546 44.2564 84.0648 44.9141 82.9131 45.5054C81.8202 46.111 80.3143 46.6436 78.3953 47.1026C76.4758 47.5763 74.262 47.9766 71.7539 48.304C69.3049 48.6459 66.7097 48.9225 63.9686 49.1335C61.2863 49.359 58.547 49.5192 55.7512 49.6143C52.9545 49.7236 50.3086 49.7754 47.8135 49.7697C45.4374 49.7643 42.7954 49.7148 39.8879 49.6211C37.0391 49.5421 34.1623 49.4196 31.2577 49.2537C28.3528 49.0876 25.5388 48.8785 22.8157 48.6258C20.1513 48.388 17.8154 48.1074 15.808 47.7842C14.9813 47.652 13.7725 47.4173 12.1814 47.0806C10.5898 46.7581 8.99952 46.3997 7.41068 46.005C5.76186 45.6246 4.32099 45.2446 3.08803 44.8651C1.79566 44.4856 1.12399 44.1873 1.073 43.9699L1.79345 43.7759C4.08115 44.5344 6.40248 45.1916 8.75744 45.7474C11.0524 46.3176 13.5287 46.8085 16.1863 47.2202C18.8433 47.6463 21.7111 48.0005 24.7895 48.2827C27.9274 48.5652 31.3642 48.8049 35.0995 49.0017C31.3057 48.7758 27.8697 48.5217 24.7911 48.2394C21.7717 47.9716 18.9628 47.6321 16.3645 47.2204C13.7658 46.8234 11.3189 46.3398 9.02391 45.7696C6.72894 45.1994 4.46784 44.5209 2.24069 43.7335L3.4958 43.5409C2.9645 43.4527 2.49487 43.3067 2.08687 43.103C1.67831 42.914 1.47712 42.7396 1.48329 42.5804C1.49395 42.3052 2.00423 42.1687 3.01414 42.1711C3.54882 42.1722 4.08264 42.1952 4.61561 42.2399C5.14802 42.299 5.65045 42.3653 6.1229 42.4389C7.87987 43.0947 9.63964 43.6781 11.4022 44.1892C13.1048 44.7144 14.9588 45.1677 16.964 45.5489C19.0281 45.9447 21.2729 46.2759 23.6985 46.5421C26.1835 46.8085 29.0567 47.0252 32.3179 47.192C29.2942 47.0257 26.5694 46.8168 24.1431 46.5648C21.7764 46.3133 19.5905 45.9968 17.5852 45.6156C15.6388 45.2489 13.8138 44.8176 12.11 44.3212C10.4657 43.8248 8.91359 43.2492 7.45367 42.5941C8.69391 42.7852 9.81397 43.0121 10.8138 43.2752L13.635 44.064C14.6349 44.3269 15.6349 44.5826 16.6353 44.8313C17.6351 45.0942 18.7551 45.3213 19.9954 45.5125L19.4532 45.7067C23.5315 46.252 27.9125 46.6533 32.5959 46.9102C37.3386 47.1819 42.0267 47.3231 46.6604 47.3337C47.9671 47.3368 49.2747 47.3252 50.5829 47.2992C51.8907 47.2734 53.17 47.2256 54.4204 47.1561C54.2422 47.1556 54.1538 47.1409 54.1547 47.1121C54.1564 47.0685 54.1871 47.047 54.2465 47.047C52.9384 47.073 51.6307 47.0917 50.3231 47.1031C49.015 47.1291 47.6482 47.1405 46.2224 47.1371C41.9451 47.1274 37.6717 47.016 33.4022 46.8035C29.1918 46.6055 25.4318 46.271 22.1231 45.7999C23.8374 46.0211 25.6717 46.2135 27.626 46.3774C29.699 46.5414 31.8331 46.6696 34.0277 46.7614C36.2219 46.8679 38.3877 46.9382 40.5253 46.972C42.6622 47.0203 44.7109 47.0468 46.6713 47.0513C49.6415 47.0581 52.7037 46.9999 55.8572 46.8769C59.0702 46.7539 62.0198 46.5291 64.706 46.2021C67.4515 45.8752 69.7857 45.4315 71.7087 44.8711C73.631 44.3252 74.8464 43.6254 75.3549 42.772C75.5323 42.7869 75.7994 42.7947 76.156 42.7957L77.047 42.7978C77.4035 42.7985 77.6997 42.821 77.9356 42.865C78.1715 42.909 78.2865 43.0105 78.2803 43.1699C78.2758 43.2856 78.2117 43.4016 78.0887 43.517C77.9647 43.6472 77.8412 43.7699 77.7177 43.8856L78.6073 43.9311C78.7294 43.8445 78.9423 43.7146 79.2461 43.5414C79.5499 43.3682 79.9133 43.1882 80.3366 43.0008C80.7591 42.8281 81.181 42.6769 81.6019 42.5475C82.0819 42.4183 82.5598 42.3542 83.0351 42.3551C83.4508 42.3561 83.7759 42.4003 84.0101 42.4878C84.2439 42.5898 84.388 42.706 84.4424 42.8363C84.556 42.9669 84.6106 43.0976 84.6054 43.2279C84.6598 43.3583 84.6856 43.4598 84.6828 43.5322Z" fill="#570EFF"/>
</g>
<path d="M170.885 22.3622H168.229C168.153 21.9266 168.013 21.5407 167.81 21.2045C167.606 20.8636 167.353 20.5748 167.05 20.3381C166.747 20.1013 166.401 19.9238 166.013 19.8054C165.629 19.6823 165.215 19.6207 164.77 19.6207C163.979 19.6207 163.278 19.8196 162.668 20.2173C162.057 20.6103 161.579 21.188 161.233 21.9503C160.887 22.7079 160.714 23.6335 160.714 24.7273C160.714 25.84 160.887 26.7775 161.233 27.5398C161.583 28.2973 162.062 28.8703 162.668 29.2585C163.278 29.642 163.977 29.8338 164.763 29.8338C165.198 29.8338 165.606 29.777 165.984 29.6634C166.368 29.545 166.711 29.3722 167.014 29.1449C167.322 28.9176 167.58 28.6383 167.788 28.3068C168.001 27.9754 168.148 27.5966 168.229 27.1705L170.885 27.1847C170.786 27.8759 170.57 28.5246 170.239 29.1307C169.912 29.7367 169.483 30.2718 168.953 30.7358C168.423 31.1951 167.803 31.5549 167.092 31.8153C166.382 32.071 165.594 32.1989 164.727 32.1989C163.449 32.1989 162.308 31.9029 161.304 31.3111C160.3 30.7192 159.509 29.8646 158.932 28.7472C158.354 27.6297 158.065 26.2898 158.065 24.7273C158.065 23.16 158.357 21.8201 158.939 20.7074C159.521 19.59 160.314 18.7353 161.318 18.1435C162.322 17.5516 163.458 17.2557 164.727 17.2557C165.537 17.2557 166.29 17.3693 166.986 17.5966C167.682 17.8239 168.302 18.1577 168.847 18.598C169.391 19.0336 169.839 19.5687 170.189 20.2031C170.544 20.8329 170.776 21.5526 170.885 22.3622ZM176.324 32.2202C175.632 32.2202 175.01 32.0971 174.456 31.8509C173.906 31.5999 173.471 31.2306 173.149 30.7429C172.832 30.2552 172.673 29.6539 172.673 28.9389C172.673 28.3234 172.787 27.8144 173.014 27.4119C173.241 27.0095 173.551 26.6875 173.944 26.446C174.337 26.2045 174.78 26.0223 175.272 25.8991C175.77 25.7713 176.283 25.679 176.814 25.6222C177.453 25.5559 177.971 25.4967 178.369 25.4446C178.767 25.3878 179.056 25.3026 179.235 25.1889C179.42 25.0705 179.512 24.8883 179.512 24.642V24.5994C179.512 24.0644 179.354 23.6501 179.037 23.3565C178.719 23.063 178.262 22.9162 177.666 22.9162C177.036 22.9162 176.537 23.0535 176.167 23.3281C175.803 23.6027 175.556 23.9271 175.429 24.3011L173.028 23.9602C173.217 23.2973 173.53 22.7434 173.966 22.2983C174.401 21.8485 174.934 21.5123 175.564 21.2898C176.193 21.0625 176.889 20.9489 177.652 20.9489C178.177 20.9489 178.7 21.0104 179.221 21.1335C179.742 21.2566 180.218 21.4602 180.649 21.7443C181.08 22.0237 181.425 22.4048 181.686 22.8878C181.951 23.3707 182.083 23.9744 182.083 24.6989V32H179.612V30.5014H179.527C179.37 30.8045 179.15 31.0885 178.866 31.3537C178.587 31.6141 178.234 31.8248 177.808 31.9858C177.386 32.142 176.892 32.2202 176.324 32.2202ZM176.991 30.331C177.507 30.331 177.955 30.2292 178.333 30.0256C178.712 29.8172 179.003 29.5426 179.207 29.2017C179.415 28.8608 179.52 28.4891 179.52 28.0866V26.8011C179.439 26.8674 179.302 26.929 179.108 26.9858C178.918 27.0426 178.705 27.0923 178.468 27.1349C178.232 27.1776 177.997 27.2154 177.765 27.2486C177.533 27.2817 177.332 27.3101 177.162 27.3338C176.778 27.3859 176.435 27.4711 176.132 27.5895C175.829 27.7079 175.59 27.8736 175.414 28.0866C175.239 28.295 175.152 28.5649 175.152 28.8963C175.152 29.3698 175.324 29.7273 175.67 29.9688C176.016 30.2102 176.456 30.331 176.991 30.331ZM184.669 32V21.0909H187.162V22.9091H187.275C187.474 22.2794 187.815 21.794 188.298 21.4531C188.786 21.1075 189.342 20.9347 189.967 20.9347C190.109 20.9347 190.268 20.9418 190.443 20.956C190.623 20.9654 190.772 20.982 190.89 21.0057V23.3707C190.781 23.3329 190.609 23.2997 190.372 23.2713C190.14 23.2382 189.915 23.2216 189.697 23.2216C189.228 23.2216 188.807 23.3234 188.433 23.527C188.064 23.7259 187.772 24.0028 187.559 24.358C187.346 24.7131 187.24 25.1226 187.24 25.5866V32H184.669ZM196.979 32.2131C195.885 32.2131 194.94 31.9858 194.145 31.5312C193.354 31.072 192.746 30.4233 192.32 29.5852C191.893 28.7424 191.68 27.7505 191.68 26.6094C191.68 25.4872 191.893 24.5024 192.32 23.6548C192.75 22.8026 193.352 22.1397 194.124 21.6662C194.895 21.188 195.802 20.9489 196.844 20.9489C197.516 20.9489 198.151 21.0578 198.747 21.2756C199.348 21.4886 199.879 21.8201 200.338 22.2699C200.802 22.7197 201.167 23.2926 201.432 23.9886C201.697 24.6799 201.83 25.5038 201.83 26.4602V27.2486H192.888V25.5156H199.365C199.36 25.0232 199.254 24.5852 199.045 24.2017C198.837 23.8134 198.546 23.508 198.172 23.2855C197.803 23.063 197.372 22.9517 196.879 22.9517C196.354 22.9517 195.892 23.0795 195.494 23.3352C195.097 23.5862 194.786 23.9176 194.564 24.3295C194.346 24.7367 194.235 25.1842 194.23 25.6719V27.1847C194.23 27.8191 194.346 28.3636 194.578 28.8182C194.81 29.268 195.134 29.6136 195.551 29.8551C195.968 30.0919 196.455 30.2102 197.014 30.2102C197.388 30.2102 197.727 30.1581 198.03 30.054C198.333 29.9451 198.596 29.7865 198.818 29.5781C199.041 29.3698 199.209 29.1117 199.322 28.804L201.723 29.0739C201.571 29.7083 201.283 30.2623 200.857 30.7358C200.435 31.2045 199.895 31.5691 199.237 31.8295C198.579 32.0852 197.826 32.2131 196.979 32.2131ZM208.834 32.2131C207.74 32.2131 206.796 31.9858 206 31.5312C205.21 31.072 204.601 30.4233 204.175 29.5852C203.749 28.7424 203.536 27.7505 203.536 26.6094C203.536 25.4872 203.749 24.5024 204.175 23.6548C204.606 22.8026 205.207 22.1397 205.979 21.6662C206.751 21.188 207.658 20.9489 208.699 20.9489C209.372 20.9489 210.006 21.0578 210.603 21.2756C211.204 21.4886 211.734 21.8201 212.194 22.2699C212.658 22.7197 213.022 23.2926 213.287 23.9886C213.552 24.6799 213.685 25.5038 213.685 26.4602V27.2486H204.743V25.5156H211.221C211.216 25.0232 211.109 24.5852 210.901 24.2017C210.693 23.8134 210.401 23.508 210.027 23.2855C209.658 23.063 209.227 22.9517 208.735 22.9517C208.209 22.9517 207.748 23.0795 207.35 23.3352C206.952 23.5862 206.642 23.9176 206.419 24.3295C206.202 24.7367 206.09 25.1842 206.086 25.6719V27.1847C206.086 27.8191 206.202 28.3636 206.434 28.8182C206.666 29.268 206.99 29.6136 207.407 29.8551C207.823 30.0919 208.311 30.2102 208.87 30.2102C209.244 30.2102 209.582 30.1581 209.885 30.054C210.188 29.9451 210.451 29.7865 210.674 29.5781C210.896 29.3698 211.064 29.1117 211.178 28.804L213.578 29.0739C213.427 29.7083 213.138 30.2623 212.712 30.7358C212.291 31.2045 211.751 31.5691 211.093 31.8295C210.435 32.0852 209.682 32.2131 208.834 32.2131ZM215.86 32V21.0909H218.353V22.9091H218.467C218.665 22.2794 219.006 21.794 219.489 21.4531C219.977 21.1075 220.533 20.9347 221.158 20.9347C221.3 20.9347 221.459 20.9418 221.634 20.956C221.814 20.9654 221.963 20.982 222.082 21.0057V23.3707C221.973 23.3329 221.8 23.2997 221.563 23.2713C221.331 23.2382 221.106 23.2216 220.888 23.2216C220.42 23.2216 219.998 23.3234 219.624 23.527C219.255 23.7259 218.964 24.0028 218.751 24.358C218.538 24.7131 218.431 25.1226 218.431 25.5866V32H215.86ZM232.412 23.9744L230.068 24.2301C230.002 23.9934 229.886 23.7708 229.72 23.5625C229.559 23.3542 229.341 23.1861 229.067 23.0582C228.792 22.9304 228.456 22.8665 228.058 22.8665C227.523 22.8665 227.073 22.9825 226.709 23.2145C226.349 23.4465 226.171 23.7472 226.176 24.1165C226.171 24.4337 226.287 24.6918 226.524 24.8906C226.766 25.0895 227.163 25.2528 227.717 25.3807L229.578 25.7784C230.61 26.0009 231.377 26.3537 231.879 26.8366C232.386 27.3196 232.642 27.9517 232.646 28.733C232.642 29.4195 232.44 30.0256 232.043 30.5511C231.65 31.072 231.103 31.4792 230.402 31.7727C229.701 32.0663 228.896 32.2131 227.987 32.2131C226.652 32.2131 225.577 31.9337 224.763 31.375C223.948 30.8116 223.463 30.0279 223.307 29.0241L225.814 28.7827C225.928 29.2751 226.169 29.6468 226.538 29.8977C226.908 30.1487 227.388 30.2741 227.98 30.2741C228.591 30.2741 229.081 30.1487 229.45 29.8977C229.824 29.6468 230.011 29.3366 230.011 28.9673C230.011 28.6548 229.891 28.3968 229.649 28.1932C229.412 27.9896 229.043 27.8333 228.541 27.7244L226.68 27.3338C225.634 27.116 224.86 26.7491 224.358 26.233C223.856 25.7121 223.607 25.054 223.612 24.2585C223.607 23.5862 223.79 23.0038 224.159 22.5114C224.533 22.0142 225.052 21.6307 225.714 21.3608C226.382 21.0862 227.152 20.9489 228.023 20.9489C229.301 20.9489 230.307 21.2211 231.041 21.7656C231.78 22.3101 232.237 23.0464 232.412 23.9744ZM239.841 32V17.4545H245.295C246.413 17.4545 247.35 17.6629 248.108 18.0795C248.87 18.4962 249.446 19.0691 249.834 19.7983C250.227 20.5227 250.423 21.3466 250.423 22.2699C250.423 23.2027 250.227 24.0312 249.834 24.7557C249.441 25.4801 248.861 26.0507 248.094 26.4673C247.327 26.8793 246.382 27.0852 245.26 27.0852H241.645V24.919H244.905C245.558 24.919 246.093 24.8054 246.51 24.5781C246.927 24.3509 247.234 24.0384 247.433 23.6406C247.637 23.2429 247.739 22.786 247.739 22.2699C247.739 21.7538 247.637 21.2992 247.433 20.9062C247.234 20.5133 246.924 20.2079 246.503 19.9901C246.086 19.7675 245.549 19.6562 244.891 19.6562H242.476V32H239.841ZM255.169 17.4545V32H252.598V17.4545H255.169ZM260.952 32.2202C260.261 32.2202 259.638 32.0971 259.085 31.8509C258.535 31.5999 258.1 31.2306 257.778 30.7429C257.46 30.2552 257.302 29.6539 257.302 28.9389C257.302 28.3234 257.415 27.8144 257.643 27.4119C257.87 27.0095 258.18 26.6875 258.573 26.446C258.966 26.2045 259.409 26.0223 259.901 25.8991C260.398 25.7713 260.912 25.679 261.442 25.6222C262.082 25.5559 262.6 25.4967 262.998 25.4446C263.396 25.3878 263.684 25.3026 263.864 25.1889C264.049 25.0705 264.141 24.8883 264.141 24.642V24.5994C264.141 24.0644 263.983 23.6501 263.665 23.3565C263.348 23.063 262.891 22.9162 262.295 22.9162C261.665 22.9162 261.165 23.0535 260.796 23.3281C260.432 23.6027 260.185 23.9271 260.058 24.3011L257.657 23.9602C257.846 23.2973 258.159 22.7434 258.594 22.2983C259.03 21.8485 259.563 21.5123 260.192 21.2898C260.822 21.0625 261.518 20.9489 262.281 20.9489C262.806 20.9489 263.329 21.0104 263.85 21.1335C264.371 21.2566 264.847 21.4602 265.278 21.7443C265.709 22.0237 266.054 22.4048 266.315 22.8878C266.58 23.3707 266.712 23.9744 266.712 24.6989V32H264.241V30.5014H264.156C263.999 30.8045 263.779 31.0885 263.495 31.3537C263.216 31.6141 262.863 31.8248 262.437 31.9858C262.015 32.142 261.521 32.2202 260.952 32.2202ZM261.62 30.331C262.136 30.331 262.584 30.2292 262.962 30.0256C263.341 29.8172 263.632 29.5426 263.836 29.2017C264.044 28.8608 264.148 28.4891 264.148 28.0866V26.8011C264.068 26.8674 263.931 26.929 263.737 26.9858C263.547 27.0426 263.334 27.0923 263.097 27.1349C262.861 27.1776 262.626 27.2154 262.394 27.2486C262.162 27.2817 261.961 27.3101 261.79 27.3338C261.407 27.3859 261.064 27.4711 260.761 27.5895C260.458 27.7079 260.219 27.8736 260.043 28.0866C259.868 28.295 259.781 28.5649 259.781 28.8963C259.781 29.3698 259.953 29.7273 260.299 29.9688C260.645 30.2102 261.085 30.331 261.62 30.331ZM274.745 21.0909V23.0795H268.474V21.0909H274.745ZM270.022 18.4773H272.593V28.7188C272.593 29.0644 272.645 29.3295 272.749 29.5142C272.858 29.6941 273 29.8172 273.175 29.8835C273.351 29.9498 273.545 29.983 273.758 29.983C273.919 29.983 274.066 29.9711 274.198 29.9474C274.335 29.9238 274.44 29.9025 274.511 29.8835L274.944 31.8935C274.807 31.9408 274.61 31.9929 274.354 32.0497C274.103 32.1065 273.796 32.1397 273.431 32.1491C272.787 32.1681 272.207 32.071 271.691 31.858C271.175 31.6402 270.765 31.304 270.462 30.8494C270.164 30.3949 270.017 29.8267 270.022 29.1449V18.4773ZM282.421 21.0909V23.0795H275.972V21.0909H282.421ZM277.584 32V20.0611C277.584 19.3272 277.736 18.7164 278.039 18.2287C278.346 17.741 278.758 17.3764 279.275 17.1349C279.791 16.8935 280.364 16.7727 280.993 16.7727C281.438 16.7727 281.834 16.8082 282.179 16.8793C282.525 16.9503 282.781 17.0142 282.946 17.071L282.435 19.0597C282.326 19.0265 282.189 18.9934 282.023 18.9602C281.857 18.9223 281.673 18.9034 281.469 18.9034C280.991 18.9034 280.652 19.0194 280.453 19.2514C280.259 19.4787 280.162 19.8054 280.162 20.2315V32H277.584ZM288.783 32.2131C287.717 32.2131 286.794 31.9787 286.013 31.5099C285.232 31.0412 284.625 30.3854 284.195 29.5426C283.768 28.6998 283.555 27.715 283.555 26.5881C283.555 25.4612 283.768 24.474 284.195 23.6264C284.625 22.7789 285.232 22.1207 286.013 21.652C286.794 21.1832 287.717 20.9489 288.783 20.9489C289.848 20.9489 290.771 21.1832 291.553 21.652C292.334 22.1207 292.938 22.7789 293.364 23.6264C293.795 24.474 294.01 25.4612 294.01 26.5881C294.01 27.715 293.795 28.6998 293.364 29.5426C292.938 30.3854 292.334 31.0412 291.553 31.5099C290.771 31.9787 289.848 32.2131 288.783 32.2131ZM288.797 30.1534C289.375 30.1534 289.857 29.9948 290.246 29.6776C290.634 29.3556 290.923 28.9247 291.112 28.3849C291.306 27.8452 291.403 27.2438 291.403 26.581C291.403 25.9134 291.306 25.3097 291.112 24.7699C290.923 24.2254 290.634 23.7921 290.246 23.4702C289.857 23.1482 289.375 22.9872 288.797 22.9872C288.205 22.9872 287.713 23.1482 287.32 23.4702C286.931 23.7921 286.64 24.2254 286.446 24.7699C286.257 25.3097 286.162 25.9134 286.162 26.581C286.162 27.2438 286.257 27.8452 286.446 28.3849C286.64 28.9247 286.931 29.3556 287.32 29.6776C287.713 29.9948 288.205 30.1534 288.797 30.1534ZM296.192 32V21.0909H298.685V22.9091H298.799C298.998 22.2794 299.338 21.794 299.821 21.4531C300.309 21.1075 300.865 20.9347 301.49 20.9347C301.632 20.9347 301.791 20.9418 301.966 20.956C302.146 20.9654 302.295 20.982 302.414 21.0057V23.3707C302.305 23.3329 302.132 23.2997 301.895 23.2713C301.663 23.2382 301.438 23.2216 301.221 23.2216C300.752 23.2216 300.33 23.3234 299.956 23.527C299.587 23.7259 299.296 24.0028 299.083 24.358C298.87 24.7131 298.763 25.1226 298.763 25.5866V32H296.192ZM304.122 32V21.0909H306.579V22.9446H306.707C306.934 22.3196 307.311 21.8319 307.836 21.4815C308.362 21.1264 308.989 20.9489 309.718 20.9489C310.457 20.9489 311.08 21.1288 311.586 21.4886C312.098 21.8437 312.458 22.3291 312.666 22.9446H312.779C313.021 22.3385 313.428 21.8556 314.001 21.4957C314.579 21.1312 315.263 20.9489 316.054 20.9489C317.057 20.9489 317.877 21.2661 318.511 21.9006C319.145 22.535 319.463 23.4607 319.463 24.6776V32H316.885V25.0753C316.885 24.3982 316.705 23.9034 316.345 23.5909C315.985 23.2737 315.545 23.1151 315.024 23.1151C314.404 23.1151 313.918 23.3092 313.568 23.6974C313.222 24.081 313.049 24.5805 313.049 25.196V32H310.528V24.9688C310.528 24.4053 310.358 23.9555 310.017 23.6193C309.681 23.2831 309.24 23.1151 308.696 23.1151C308.326 23.1151 307.99 23.2098 307.687 23.3991C307.384 23.5838 307.143 23.8466 306.963 24.1875C306.783 24.5237 306.693 24.9167 306.693 25.3665V32H304.122Z" fill="#263238"/>
<defs>
<clipPath id="clip0_126_21">
<rect width="150" height="49.9211" fill="white"/>
</clipPath>
</defs>
</svg>
