<svg width="1000" height="1000" viewBox="0 0 1000 1000" fill="none" xmlns="http://www.w3.org/2000/svg">
<path d="M348.642 0H651.358C751.75 0 801.933 0 855.975 17.0833C914.975 38.5583 961.442 85.025 982.917 144.025C1000 198.058 1000 248.258 1000 348.642V651.358C1000 751.75 1000 801.933 982.917 855.975C961.442 914.975 914.975 961.442 855.975 982.908C801.933 1000 751.75 1000 651.358 1000H348.642C248.25 1000 198.058 1000 144.025 982.908C85.025 961.442 38.5583 914.975 17.0833 855.975C0 801.933 0 751.75 0 651.358V348.642C0 248.258 0 198.058 17.0833 144.025C38.5583 85.025 85.025 38.5583 144.025 17.0833C198.058 0 248.25 0 348.642 0Z" fill="url(#paint0_linear_85_180)"/>
<g filter="url(#filter0_d_85_180)">
<path fill-rule="evenodd" clip-rule="evenodd" d="M333.333 568.182C333.333 597.47 309.591 621.212 280.303 621.212C251.015 621.212 227.273 597.47 227.273 568.182C227.273 538.894 251.015 515.151 280.303 515.151C309.591 515.151 333.333 538.894 333.333 568.182ZM772.727 568.182C772.727 597.47 748.985 621.212 719.697 621.212C690.409 621.212 666.667 597.47 666.667 568.182C666.667 538.894 690.409 515.152 719.697 515.152C748.985 515.152 772.727 538.894 772.727 568.182ZM381.167 667.237C392.93 669.996 446.465 681.818 500 681.818C553.535 681.818 607.07 669.996 618.833 667.237C619.709 667.032 620.366 667.945 619.845 668.679C612.392 679.188 574.228 727.273 500 727.273C425.772 727.273 387.608 679.188 380.154 668.679C379.634 667.945 380.291 667.032 381.167 667.237Z" fill="url(#paint1_linear_85_180)"/>
</g>
<defs>
<filter id="filter0_d_85_180" x="223.273" y="515.151" width="553.455" height="220.121" filterUnits="userSpaceOnUse" color-interpolation-filters="sRGB">
<feFlood flood-opacity="0" result="BackgroundImageFix"/>
<feColorMatrix in="SourceAlpha" type="matrix" values="0 0 0 0 0 0 0 0 0 0 0 0 0 0 0 0 0 0 127 0" result="hardAlpha"/>
<feOffset dy="4"/>
<feGaussianBlur stdDeviation="2"/>
<feColorMatrix type="matrix" values="0 0 0 0 0 0 0 0 0 0 0 0 0 0 0 0 0 0 0.25 0"/>
<feBlend mode="normal" in2="BackgroundImageFix" result="effect1_dropShadow_85_180"/>
<feBlend mode="normal" in="SourceGraphic" in2="effect1_dropShadow_85_180" result="shape"/>
</filter>
<linearGradient id="paint0_linear_85_180" x1="500" y1="0" x2="500" y2="1000" gradientUnits="userSpaceOnUse">
<stop stop-color="#2B48A8"/>
<stop offset="0.0989583" stop-color="#2B4FA8"/>
<stop offset="1"/>
</linearGradient>
<linearGradient id="paint1_linear_85_180" x1="500" y1="515.151" x2="500" y2="727.273" gradientUnits="userSpaceOnUse">
<stop stop-color="#E0E0E0"/>
<stop offset="0.0001" stop-color="white"/>
<stop offset="1" stop-color="#D6D7D8"/>
</linearGradient>
</defs>
</svg>
