<svg width="361" height="285" viewBox="0 0 361 285" fill="none" xmlns="http://www.w3.org/2000/svg">
<path d="M116.35 0.0499932C133.15 0.0499932 147.85 4.36666 160.45 13C173.05 21.6333 182.733 34.1167 189.5 50.45C196.5 66.7833 200 86.2667 200 108.9C200 131.533 196.5 151.017 189.5 167.35C182.733 183.683 173.05 196.167 160.45 204.8C147.85 213.667 133.15 218.1 116.35 218.1C102.583 218.1 90.1 215.533 78.9 210.4C67.7 205.5 58.25 198.033 50.55 188H48.45C52.65 197.567 57.9 205.733 64.2 212.5V255.55V284.6H0.850001V252.75V67.6V5.29999H55.45V12.3C50.55 19.7667 46.9333 27.7 44.6 36.1L47.05 36.45C54.9833 24.55 64.9 15.5667 76.8 9.5C88.9333 3.19999 102.117 0.0499932 116.35 0.0499932ZM97.1 167.35C109.7 167.35 119.267 162.45 125.8 152.65C132.567 142.85 135.95 128.267 135.95 108.9C135.95 89.5333 132.567 75.0667 125.8 65.5C119.267 55.7 109.7 50.8 97.1 50.8C70.9667 50.8 57.9 70.1667 57.9 108.9C57.9 128.267 61.1667 142.85 67.7 152.65C74.4667 162.45 84.2667 167.35 97.1 167.35ZM360.532 138.65C359.599 154.517 354.816 168.517 346.182 180.65C337.782 192.55 326.349 201.767 311.882 208.3C297.649 214.833 281.549 218.1 263.582 218.1C242.816 218.1 224.499 213.667 208.632 204.8C192.766 196.167 180.399 183.683 171.532 167.35C162.899 151.017 158.582 131.65 158.582 109.25C158.582 86.85 162.899 67.4833 171.532 51.15C180.399 34.5833 192.766 21.9833 208.632 13.35C224.499 4.48333 242.816 0.0499932 263.582 0.0499932C281.082 0.0499932 296.949 3.66666 311.182 10.9C325.649 17.9 337.082 27.4667 345.482 39.6C353.882 51.7333 358.316 65.0333 358.782 79.5H294.382C291.116 61.3 280.849 52.2 263.582 52.2C250.749 52.2 240.716 57.1 233.482 66.9C226.249 76.4667 222.632 90.5833 222.632 109.25C222.632 127.917 226.249 142.033 233.482 151.6C240.716 161.167 250.749 165.95 263.582 165.95C273.149 165.95 280.616 163.967 285.982 160C291.582 156.033 295.082 148.917 296.482 138.65H360.532Z" fill="white"/>
</svg>
