<svg width="144" height="40" viewBox="0 0 144 40" fill="none" xmlns="http://www.w3.org/2000/svg">
<path d="M52.432 12.328L50.224 14.656C49.576 13.744 48.424 13.312 47.248 13.312C45.856 13.312 44.464 13.936 44.464 15.496C44.464 18.904 52.528 16.96 52.528 23.008C52.528 26.656 49.648 28.432 46.312 28.432C44.2 28.432 42.136 27.784 40.744 26.128L43.024 23.92C43.768 25.048 45.04 25.696 46.384 25.696C47.776 25.696 49.36 24.928 49.36 23.368C49.36 19.648 41.296 21.784 41.296 15.712C41.296 12.208 44.416 10.576 47.56 10.576C49.336 10.576 51.112 11.08 52.432 12.328ZM55.7013 28L63.0933 11.008H65.7093L73.0293 28H69.5733L67.9893 24.112H60.6213L59.0853 28H55.7013ZM61.6533 21.52H66.9333L64.3173 14.608L61.6533 21.52ZM78.1144 28V13.744H72.9064V11.008H86.3464V13.744H81.1384V28H78.1144ZM103.944 11.008V21.76C103.944 25.864 100.992 28.432 97.1037 28.432C93.2157 28.432 90.2637 25.864 90.2637 21.76V11.008H93.2877V21.664C93.2877 23.344 94.1997 25.552 97.1037 25.552C100.008 25.552 100.92 23.344 100.92 21.664V11.008H103.944ZM109.576 28V11.008H115.48C118.744 11.008 121.816 12.064 121.816 15.88C121.816 18.328 120.4 20.128 117.88 20.488L122.392 28H118.744L114.808 20.8H112.6V28H109.576ZM112.6 18.208H114.952C116.656 18.208 118.648 18.064 118.648 15.856C118.648 13.84 116.776 13.6 115.216 13.6H112.6V18.208ZM126.613 28V11.008H130.621L138.853 23.632H138.901V11.008H141.925V28H138.085L129.685 14.968H129.637V28H126.613Z" fill="white"/>
<path d="M35.3433 26.52C34.9467 26.683 34.5517 26.8496 34.1583 27.02L34.1416 27.0283C33.33 27.3783 32.4 27.7783 31.385 28.1517C29.3416 28.9083 26.8966 29.585 24.1816 29.585C21.16 29.585 18.8433 28.775 16.9866 27.885C16.27 27.5417 15.605 27.1767 15.02 26.8567L14.5666 26.6067C13.85 26.22 13.2933 25.9417 12.7966 25.785C10.8504 25.1872 8.84355 24.8088 6.81331 24.6567C6.00772 24.5933 5.19966 24.5666 4.39164 24.5767L4.26331 24.5817H4.22831L3.97498 24.595C4.92659 27.9053 6.87997 30.8397 9.56669 32.995C12.2534 35.1503 15.5416 36.4207 18.9795 36.6317C22.4175 36.8427 25.8363 35.9839 28.7664 34.1733C31.6965 32.3627 33.9941 29.6891 35.3433 26.52ZM5.39498 11.965L5.88998 12.4683L5.89498 12.475L5.92664 12.505L6.06998 12.64C6.20164 12.76 6.40331 12.94 6.66998 13.1567C7.20331 13.59 7.99498 14.1733 9.00998 14.7567C11.0416 15.93 13.925 17.0833 17.3933 17.0833C19.6833 17.0833 21.4366 16.4267 22.9233 15.65C23.515 15.34 24.0483 15.0217 24.5783 14.705L25.0366 14.4333C25.69 14.0467 26.3866 13.6533 27.0933 13.41C28.9229 12.7799 30.8195 12.3643 32.745 12.1717C33.3847 12.1091 34.0272 12.0801 34.67 12.085C33.2418 9.43843 31.1241 7.22759 28.5414 5.68684C25.9588 4.1461 23.0073 3.33286 20 3.33334C17.0158 3.3328 14.0861 4.13351 11.517 5.65185C8.94796 7.1702 6.83367 9.35049 5.39498 11.965Z" fill="white"/>
<path d="M36.2916 23.53C36.5416 22.39 36.6666 21.2133 36.6666 20C36.6682 18.1831 36.3726 16.3782 35.7916 14.6567L34.9133 14.5933H34.895L34.81 14.5883C34.2002 14.5788 33.5904 14.6027 32.9833 14.66C31.2528 14.8332 29.5485 15.208 27.905 15.7767C27.4666 15.9267 26.9666 16.1967 26.3083 16.585L25.895 16.8317C25.3583 17.1533 24.745 17.52 24.0816 17.865C22.365 18.7633 20.21 19.5833 17.395 19.5833C13.365 19.5833 10.05 18.245 7.76164 16.9233C6.82493 16.3874 5.93313 15.7765 5.09498 15.0967C4.82026 14.8756 4.55343 14.6449 4.29498 14.405C3.42154 16.8764 3.13732 19.5177 3.46498 22.1183L4.10664 22.085H4.12498L4.16998 22.0833C4.41986 22.0737 4.66993 22.0704 4.91998 22.0733C5.42498 22.0767 6.14164 22.0967 7.00831 22.165C8.73664 22.2983 11.0866 22.6267 13.5466 23.4017C14.2966 23.6367 15.045 24.0233 15.7583 24.41L16.2566 24.6817C16.8333 24.9983 17.4183 25.32 18.0683 25.6317C19.7016 26.415 21.6416 27.0833 24.1816 27.0833C26.4866 27.0833 28.6183 26.51 30.5183 25.8067C31.47 25.4567 32.35 25.0783 33.17 24.7233L33.2 24.7117C33.9916 24.3717 34.7616 24.04 35.4383 23.815L36.2916 23.53Z" fill="#E8E8E8"/>
</svg>
