<svg width="144" height="40" viewBox="0 0 144 40" fill="none" xmlns="http://www.w3.org/2000/svg">
<path d="M52.432 12.328L50.224 14.656C49.576 13.744 48.424 13.312 47.248 13.312C45.856 13.312 44.464 13.936 44.464 15.496C44.464 18.904 52.528 16.96 52.528 23.008C52.528 26.656 49.648 28.432 46.312 28.432C44.2 28.432 42.136 27.784 40.744 26.128L43.024 23.92C43.768 25.048 45.04 25.696 46.384 25.696C47.776 25.696 49.36 24.928 49.36 23.368C49.36 19.648 41.296 21.784 41.296 15.712C41.296 12.208 44.416 10.576 47.56 10.576C49.336 10.576 51.112 11.08 52.432 12.328ZM55.7013 28L63.0933 11.008H65.7093L73.0293 28H69.5733L67.9893 24.112H60.6213L59.0853 28H55.7013ZM61.6533 21.52H66.9333L64.3173 14.608L61.6533 21.52ZM78.1144 28V13.744H72.9064V11.008H86.3464V13.744H81.1384V28H78.1144ZM103.944 11.008V21.76C103.944 25.864 100.992 28.432 97.1037 28.432C93.2157 28.432 90.2637 25.864 90.2637 21.76V11.008H93.2877V21.664C93.2877 23.344 94.1997 25.552 97.1037 25.552C100.008 25.552 100.92 23.344 100.92 21.664V11.008H103.944ZM109.576 28V11.008H115.48C118.744 11.008 121.816 12.064 121.816 15.88C121.816 18.328 120.4 20.128 117.88 20.488L122.392 28H118.744L114.808 20.8H112.6V28H109.576ZM112.6 18.208H114.952C116.656 18.208 118.648 18.064 118.648 15.856C118.648 13.84 116.776 13.6 115.216 13.6H112.6V18.208ZM126.613 28V11.008H130.621L138.853 23.632H138.901V11.008H141.925V28H138.085L129.685 14.968H129.637V28H126.613Z" fill="black"/>
<path d="M35.3433 26.52C34.9468 26.683 34.5518 26.8496 34.1583 27.02L34.1417 27.0283C33.33 27.3783 32.4 27.7783 31.385 28.1517C29.3417 28.9083 26.8967 29.585 24.1817 29.585C21.16 29.585 18.8433 28.775 16.9867 27.885C16.27 27.5417 15.605 27.1767 15.02 26.8567L14.5667 26.6067C13.85 26.22 13.2933 25.9417 12.7967 25.785C10.8505 25.1872 8.84358 24.8088 6.81334 24.6567C6.00775 24.5933 5.19969 24.5666 4.39167 24.5767L4.26334 24.5817H4.22834L3.97501 24.595C4.92663 27.9053 6.88 30.8397 9.56672 32.995C12.2534 35.1503 15.5417 36.4207 18.9796 36.6317C22.4175 36.8427 25.8364 35.9839 28.7665 34.1733C31.6966 32.3627 33.9941 29.6891 35.3433 26.52ZM5.39501 11.965L5.89001 12.4683L5.89501 12.475L5.92667 12.505L6.07001 12.64C6.20167 12.76 6.40334 12.94 6.67001 13.1567C7.20334 13.59 7.99501 14.1733 9.01001 14.7567C11.0417 15.93 13.925 17.0833 17.3933 17.0833C19.6833 17.0833 21.4367 16.4267 22.9233 15.65C23.515 15.34 24.0483 15.0217 24.5783 14.705L25.0367 14.4333C25.69 14.0467 26.3867 13.6533 27.0933 13.41C28.923 12.7799 30.8195 12.3643 32.745 12.1717C33.3847 12.1091 34.0273 12.0801 34.67 12.085C33.2418 9.43843 31.1241 7.22759 28.5415 5.68684C25.9588 4.1461 23.0073 3.33286 20 3.33334C17.0158 3.3328 14.0862 4.13351 11.5171 5.65185C8.94799 7.1702 6.8337 9.35049 5.39501 11.965Z" fill="black"/>
<path d="M36.2917 23.53C36.5417 22.39 36.6667 21.2133 36.6667 20C36.6682 18.1831 36.3726 16.3782 35.7917 14.6567L34.9133 14.5933H34.895L34.81 14.5883C34.2003 14.5788 33.5905 14.6027 32.9833 14.66C31.2529 14.8332 29.5485 15.208 27.905 15.7767C27.4667 15.9267 26.9667 16.1967 26.3083 16.585L25.895 16.8317C25.3583 17.1533 24.745 17.52 24.0817 17.865C22.365 18.7633 20.21 19.5833 17.395 19.5833C13.365 19.5833 10.05 18.245 7.76167 16.9233C6.82496 16.3874 5.93316 15.7765 5.09501 15.0967C4.82029 14.8756 4.55346 14.6449 4.29501 14.405C3.42157 16.8764 3.13736 19.5177 3.46501 22.1183L4.10667 22.085H4.12501L4.17001 22.0833C4.41989 22.0737 4.66996 22.0704 4.92001 22.0733C5.42501 22.0767 6.14167 22.0967 7.00834 22.165C8.73667 22.2983 11.0867 22.6267 13.5467 23.4017C14.2967 23.6367 15.045 24.0233 15.7583 24.41L16.2567 24.6817C16.8333 24.9983 17.4183 25.32 18.0683 25.6317C19.7017 26.415 21.6417 27.0833 24.1817 27.0833C26.4867 27.0833 28.6183 26.51 30.5183 25.8067C31.47 25.4567 32.35 25.0783 33.17 24.7233L33.2 24.7117C33.9917 24.3717 34.7617 24.04 35.4383 23.815L36.2917 23.53Z" fill="#0E0E0E"/>
</svg>
