<svg width="250" height="52" viewBox="0 0 250 52" fill="none" xmlns="http://www.w3.org/2000/svg">
<path d="M74.0819 12.4887C84.1808 12.4887 88.4181 16.4435 88.4181 26.048V26.8249H77.1893C76.6949 23.435 75 21.4576 70.904 21.4576C68.3616 21.4576 64.9011 22.0932 60.9463 23.2938L59.4633 15.1723C65.113 13.4068 69.1384 12.4887 74.0819 12.4887ZM72.0339 43.774C72.8814 43.774 73.8701 43.6328 74.7175 43.3503C75.0706 45.5395 75.7768 47.3757 76.7655 48.8588C73.8701 50.2006 70.8333 51.048 67.9379 51.048C61.4407 51.048 56.8503 47.1638 56.8503 40.8785C56.8503 33.9576 62.2881 30.3559 72.8107 29.791C73.8701 29.7203 75 29.6497 76.2006 29.5791H88.4887V37.2062C88.4887 38.2655 88.5593 39.2542 88.7712 40.0311C89.1243 41.9379 90.2542 42.8559 92.2316 42.8559C92.8672 42.8559 93.4322 42.7853 94.0678 42.7147V49.2825C93.0085 49.9887 91.5254 50.5537 89.8305 50.7655C88.7712 50.9068 87.7119 50.9774 86.6525 50.9068C82.274 50.6243 79.3785 48.5056 78.178 44.0565C77.613 41.726 77.3305 38.9718 77.3305 35.7232H74.0819C73.7288 35.7232 73.3051 35.7232 73.0226 35.7938C69.0678 35.935 67.5141 37.4887 67.5141 39.9605C67.5141 42.4322 69.1384 43.774 72.0339 43.774ZM109.112 12.4887V50.1299H97.6717V14.678L109.112 12.4887ZM132.417 24.2825V50.1299H121.047V28.8729C121.047 23.6469 119.988 21.5989 116.245 21.5989C114.833 21.5989 113.35 21.8814 111.937 22.4463V14.7486C114.762 13.2655 117.799 12.4887 120.906 12.4887C127.545 12.4887 132.417 16.3023 132.417 24.2825ZM174.068 31.7684C174.068 34.8051 173.573 37.3475 172.585 39.5367H160.932C161.85 37.7712 162.486 35.1582 162.486 31.9802C162.486 25.2006 159.943 21.2458 155.212 21.2458C153.94 21.2458 152.387 21.5282 151.116 22.0226V13.1949C152.387 12.7712 153.87 12.4887 155.565 12.4887C166.652 12.4887 174.068 20.1158 174.068 31.7684ZM155.353 42.291H171.313C168.488 47.7288 162.839 50.9774 155.353 50.9774C144.053 50.9774 136.709 43.4915 136.709 31.7684C136.709 23.0113 141.087 16.6554 148.291 14.1836V31.7684C148.291 38.4774 150.904 42.291 155.353 42.291ZM184.617 12.4887L197.258 50.1299H186.17L173.882 14.5367L184.617 12.4887ZM211.453 13.3362L199.871 47.9407L194.927 32.3333L200.789 13.3362H211.453ZM228.442 12.4887C238.541 12.4887 242.778 16.4435 242.778 26.048V26.8249H231.55C231.055 23.435 229.36 21.4576 225.264 21.4576C222.722 21.4576 219.261 22.0932 215.307 23.2938L213.824 15.1723C219.473 13.4068 223.499 12.4887 228.442 12.4887ZM226.394 43.774C227.242 43.774 228.23 43.6328 229.078 43.3503C229.431 45.5395 230.137 47.3757 231.126 48.8588C228.23 50.2006 225.194 51.048 222.298 51.048C215.801 51.048 211.211 47.1638 211.211 40.8785C211.211 33.9576 216.648 30.3559 227.171 29.791C228.23 29.7203 229.36 29.6497 230.561 29.5791H242.849V37.2062C242.849 38.2655 242.92 39.2542 243.132 40.0311C243.485 41.9379 244.615 42.8559 246.592 42.8559C247.228 42.8559 247.793 42.7853 248.428 42.7147V49.2825C247.369 49.9887 245.886 50.5537 244.191 50.7655C243.132 50.9068 242.072 50.9774 241.013 50.9068C236.634 50.6243 233.739 48.5056 232.538 44.0565C231.973 41.726 231.691 38.9718 231.691 35.7232H228.442C228.089 35.7232 227.665 35.7232 227.383 35.7938C223.428 35.935 221.874 37.4887 221.874 39.9605C221.874 42.4322 223.499 43.774 226.394 43.774Z" fill="white"/>
<g clip-path="url(#clip0_5_2)">
<path d="M53.9631 12.9403V21.3007H26.9919V13.9581L32.517 13.74L33.8256 3.99842L44.0034 1.96286V13.3038L53.9631 12.9403ZM54.472 49.9439C52.1457 50.6709 48.8015 51.7614 44.8758 51.7614C37.4605 51.7614 32.2262 48.1264 32.2262 36.7855V24.2086H44.0034V36.1312C44.0034 40.1296 45.0212 42.3106 49.4558 42.3106C50.619 42.3106 52.073 42.1652 53.6723 41.9471L54.472 49.9439Z" fill="white"/>
<path d="M2.53404 12.9403V21.3007H29.5052V13.9581L23.9801 13.74L22.6715 3.99842L12.4937 1.96286V13.3038L2.53404 12.9403ZM2.02515 49.9439C4.3515 50.6709 7.69564 51.7614 11.6214 51.7614C19.0366 51.7614 24.2709 48.1264 24.2709 36.7855V24.2086H12.4937V36.1312C12.4937 40.1296 11.476 42.3106 7.04135 42.3106C5.87817 42.3106 4.4242 42.1652 2.82483 41.9471L2.02515 49.9439Z" fill="white"/>
<path d="M40.1399 13.2935H16.5648C14.3566 13.2935 12.5664 15.0836 12.5664 17.2919C12.5664 19.5001 14.3566 21.2903 16.5648 21.2903H40.1399C42.3482 21.2903 44.1384 19.5001 44.1384 17.2919C44.1384 15.0836 42.3482 13.2935 40.1399 13.2935Z" fill="white"/>
</g>
<defs>
<clipPath id="clip0_5_2">
<rect width="56.4972" height="51.8237" fill="white"/>
</clipPath>
</defs>
</svg>
