<svg width="469" height="130" viewBox="0 0 469 130" fill="none" xmlns="http://www.w3.org/2000/svg">
<path fill-rule="evenodd" clip-rule="evenodd" d="M0 20C0 8.9543 8.95431 0 20 0H449C460.046 0 469 8.95431 469 20V110C469 121.046 460.046 130 449 130H20C8.9543 130 0 121.046 0 110V20ZM153.531 44.582C169.69 44.582 176.469 50.9097 176.469 66.2769V67.5198H158.503C157.712 62.0961 155 58.9322 148.447 58.9322C144.379 58.9322 138.842 59.9492 132.515 61.8701L130.142 48.8758C139.181 46.0509 145.622 44.582 153.531 44.582ZM150.255 94.6384C151.611 94.6384 153.192 94.4124 154.548 93.9605C155.113 97.4633 156.243 100.401 157.825 102.774C153.192 104.921 148.334 106.277 143.701 106.277C133.305 106.277 125.961 100.062 125.961 90.0057C125.961 78.9322 134.661 73.1695 151.498 72.2656C153.192 72.1526 155 72.0396 156.921 71.9266H176.582V84.13C176.582 85.8249 176.695 87.4068 177.034 88.6497C177.599 91.7006 179.407 93.1695 182.571 93.1695C183.495 93.1695 184.325 93.0763 185.232 92.9745L185.509 92.9435V103.452C183.814 104.582 181.441 105.486 178.729 105.825C177.034 106.051 175.339 106.164 173.644 106.051C166.639 105.599 162.006 102.209 160.085 95.0904C159.181 91.3616 158.729 86.9548 158.729 81.7571H153.531C152.966 81.7571 152.288 81.7571 151.837 81.8701C145.509 82.0961 143.023 84.5819 143.023 88.5367C143.023 92.4915 145.622 94.6384 150.255 94.6384ZM209.58 44.582V104.808H191.275V48.0848L209.58 44.582ZM246.868 104.808H228.676V70.7966C228.676 62.4351 226.981 59.1582 220.993 59.1582C218.733 59.1582 216.36 59.6102 214.1 60.5142V48.1978C218.62 45.8249 223.478 44.582 228.45 44.582C239.072 44.582 246.868 50.6837 246.868 63.452V104.808ZM313.508 75.4294C313.508 80.2882 312.717 84.3559 311.135 87.8588H292.491C293.96 85.0339 294.977 80.8531 294.977 75.7684C294.977 64.9209 290.909 58.5933 283.339 58.5933C281.305 58.5933 278.819 59.0452 276.785 59.8362V45.7119C278.819 45.034 281.192 44.582 283.904 44.582C301.644 44.582 313.508 56.7854 313.508 75.4294ZM283.565 92.2655H309.102C304.582 100.966 295.542 106.164 283.565 106.164C265.486 106.164 253.734 94.1865 253.734 75.4294C253.734 61.4181 260.74 51.2486 272.265 47.2938V75.4294C272.265 86.1639 276.446 92.2655 283.565 92.2655ZM330.387 44.582L350.613 104.808H332.873L313.212 47.8588L330.387 44.582ZM373.325 45.9379L354.794 101.305L346.884 76.3334L356.263 45.9379H373.325ZM400.508 44.582C416.666 44.582 423.446 50.9097 423.446 66.2769V67.5198H405.479C404.689 62.0961 401.977 58.9322 395.423 58.9322C391.355 58.9322 385.818 59.9492 379.491 61.8701L377.118 48.8758C386.157 46.0509 392.598 44.582 400.508 44.582ZM397.231 94.6384C398.587 94.6384 400.169 94.4124 401.525 93.9605C402.09 97.4633 403.22 100.401 404.801 102.774C400.169 104.921 395.31 106.277 390.677 106.277C380.282 106.277 372.937 100.062 372.937 90.0057C372.937 78.9322 381.638 73.1695 398.474 72.2656C400.169 72.1526 401.977 72.0396 403.898 71.9266H423.559V84.13C423.559 85.8249 423.672 87.4068 424.01 88.6497C424.575 91.7006 426.383 93.1695 429.547 93.1695C430.471 93.1695 431.302 93.0763 432.208 92.9745L432.485 92.9435V103.452C430.79 104.582 428.417 105.486 425.705 105.825C424.01 106.051 422.316 106.164 420.621 106.051C413.615 105.599 408.982 102.209 407.061 95.0904C406.157 91.3616 405.705 86.9548 405.705 81.7571H400.508C399.943 81.7571 399.265 81.7571 398.813 81.8701C392.485 82.0961 389.999 84.5819 389.999 88.5367C389.999 92.4915 392.598 94.6384 397.231 94.6384ZM121.341 58.0811V44.7045L105.405 45.2861V27.1406L89.1209 30.3975L87.1232 45.2695H73.2722L71.2745 30.3975L54.99 27.1406V45.2861L39.0545 44.7045V58.0811H78.1871H82.2083H121.341ZM121.77 104.031L122.155 103.91L120.876 91.1152C118.317 91.4642 115.99 91.6968 114.129 91.6968C107.034 91.6968 105.405 88.2073 105.405 81.8098V62.7338H86.5619V82.8567C86.5619 101.002 94.9368 106.818 106.801 106.818C112.869 106.818 118.068 105.19 121.77 104.031L121.77 104.031L121.77 104.031ZM38.2403 103.91L38.6254 104.031L38.6254 104.031C42.3272 105.19 47.5265 106.818 53.5942 106.818C65.4586 106.818 73.8335 101.002 73.8335 82.8567V62.7338H54.99V81.8098C54.99 88.2073 53.3616 91.6968 46.2662 91.6968C44.4051 91.6968 42.0788 91.4642 39.5198 91.1152L38.2403 103.91Z" fill="white"/>
</svg>
