<svg width="341" height="163" viewBox="0 0 341 163" fill="none" xmlns="http://www.w3.org/2000/svg">
<path d="M11.75 162.5C7.20833 162.5 4.1875 161.396 2.6875 159.188C1.47917 157.354 0.875 155.771 0.875 154.438C0.875 153.104 1.27083 151.729 2.0625 150.312C3.22917 148.562 4.47917 147.521 5.8125 147.188C7.1875 146.854 8.1875 146.688 8.8125 146.688C10.2292 146.688 11.6458 147.083 13.0625 147.875C13.9375 148.417 14.875 149.083 15.875 149.875C17.8333 151.292 19.6667 152 21.375 152C22.375 152 23.3333 151.75 24.25 151.25C26.6667 149.875 28.5833 147.542 30 144.25L35.375 131.875L14.75 83.6875C11.2083 74.8542 6.95833 69.6042 2 67.9375V63.25H22.3125L39.0625 63.3125V68C37.1458 68.875 35.9792 70 35.5625 71.375C35.1458 72.7083 34.9375 73.9375 34.9375 75.0625C34.9375 75.7292 35 76.3958 35.125 77.0625C35.4167 78.8958 35.8542 80.4375 36.4375 81.6875L46.875 106.188L57.875 80.5C58.4583 79.1667 58.7708 77.9792 58.8125 76.9375C58.8542 75.8542 58.875 75.2083 58.875 75C58.875 73.3333 58.5833 71.8333 58 70.5C57.2917 68.9583 56.0417 68.125 54.25 68V63.3125C58.2917 63.2708 65.6458 63.25 76.3125 63.25V67.9375C73.8958 68.3958 71.3125 70.0833 68.5625 73C65.8125 75.9167 63.9167 78.5208 62.875 80.8125L34.3125 146.188C31.8958 151.938 28.875 156.083 25.25 158.625C21.625 161.208 17.125 162.5 11.75 162.5ZM110.625 131.875V126C108.042 127.75 105.125 129.167 101.875 130.25C98.6667 131.292 95.4167 131.812 92.125 131.812H91.75C85.9167 131.604 81.5208 129.812 78.5625 126.438C75.6042 123.021 74.125 118.979 74.125 114.312C74.125 109.396 75.9375 104.646 79.5625 100.062C83.1042 95.9792 87.75 92.875 93.5 90.75C99.25 88.5833 104.958 87.1875 110.625 86.5625V83.5625C110.583 77.5625 109.833 73.4583 108.375 71.25C106.917 69 105.146 67.875 103.062 67.875H102.688C101.354 68.0833 100.417 68.6458 99.875 69.5625C99.3333 70.4792 99.0625 71.4583 99.0625 72.5L99.125 73.375C99.25 74.2083 99.3125 74.9792 99.3125 75.6875C99.3125 80.8125 96.4583 83.7917 90.75 84.625C89.5833 84.8333 88.4167 84.9375 87.25 84.9375C86.2083 84.9375 85.1458 84.8542 84.0625 84.6875C81.8542 84.3125 80.2083 83.2917 79.125 81.625C78.6667 80.6667 78.4375 79.6667 78.4375 78.625C78.4375 77.5833 78.6875 76.5 79.1875 75.375C80.1042 73.1667 81.3125 71.375 82.8125 70C85.5208 67.5417 88.7083 65.7917 92.375 64.75C96.0417 63.7083 99.4375 63.1875 102.562 63.1875H103.562C107.938 63.1875 112.146 63.9375 116.188 65.4375C120.521 67.0625 124.083 69.5625 126.875 72.9375C129.667 76.3125 131.167 80.5625 131.375 85.6875V109C131.375 114.375 132.333 118.521 134.25 121.438C135.292 123.062 136.771 124.188 138.688 124.812L138.75 129.5L110.625 131.875ZM104.562 123.562C105.688 123.396 106.812 123 107.938 122.375C109.062 121.708 109.958 120.958 110.625 120.125V92.0625C105.542 92.5625 101.667 94.6042 99 98.1875C96.3333 101.729 95 105.896 95 110.688V111.125C95.2083 114.958 96.2292 118 98.0625 120.25C99.9375 122.458 101.917 123.562 104 123.562H104.562ZM165.562 131.938C157.146 131.938 148.625 130.729 140 128.312L142.438 109.438L147 110.75C148 115.958 150.521 120 154.562 122.875C158.646 125.75 162.979 127.188 167.562 127.188C170.771 127.188 173.188 126.312 174.812 124.562C176.188 123.146 176.875 121.667 176.875 120.125C176.875 119.625 176.812 119.125 176.688 118.625C176.188 116.5 174.125 114.542 170.5 112.75C166.917 110.917 163.021 108.854 158.812 106.562C154.646 104.271 151.104 102.104 148.188 100.062C144.438 97.0625 142.104 94 141.188 90.875C140.271 87.7083 139.812 85 139.812 82.75C139.812 81.0833 140 79.4167 140.375 77.75C141.333 74.125 143.188 71.2292 145.938 69.0625C148.729 66.8958 151.812 65.375 155.188 64.5C158.604 63.625 161.833 63.1875 164.875 63.1875H166.062C174.104 63.8125 181.5 66.5 188.25 71.25L181.25 88.8125L176.812 87.25L176.875 85.3125C176.875 75.3125 172.854 69.5833 164.812 68.125C163.854 68 162.938 67.9375 162.062 67.9375C159.438 67.9375 157.292 68.4583 155.625 69.5C153.583 70.75 152.562 72.3958 152.562 74.4375C152.562 76.9375 154.25 79.4167 157.625 81.875C162.958 85.4167 170.229 89.4375 179.438 93.9375C184.521 96.5625 187.917 99.625 189.625 103.125C191.375 106.583 192.25 109.771 192.25 112.688C192.25 118.604 189.688 123.458 184.562 127.25C180.688 130.167 175.396 131.708 168.688 131.875L165.562 131.938ZM243.75 131.875V121.938C238.542 128.521 232.167 131.812 224.625 131.812C223.875 131.812 223.125 131.771 222.375 131.688C215.792 131.104 210.625 128.833 206.875 124.875C203.125 120.875 201.146 115.562 200.938 108.938V88.875C200.521 85.3333 199.646 82.6042 198.312 80.6875C197.021 78.7292 195.5 77.5625 193.75 77.1875L193.812 72.5C197.896 71.875 201.667 70.8125 205.125 69.3125C208.583 67.7708 212.021 66.0208 215.438 64.0625C216.312 63.5625 217.021 63.2917 217.562 63.25C218.104 63.2083 218.458 63.1875 218.625 63.1875C220.625 63.1875 221.625 64.125 221.625 66V111.125C221.75 121.583 224.271 126.812 229.188 126.812H229.625C232.792 126.479 235.625 125.021 238.125 122.438C240.667 119.812 242.542 117.188 243.75 114.562V88.875C243.375 85.3333 242.521 82.6042 241.188 80.6875C239.896 78.7292 238.375 77.5625 236.625 77.1875V72.5C240.75 71.875 244.521 70.8125 247.938 69.3125C251.396 67.7708 254.812 66.0208 258.188 64.0625C259.062 63.5625 259.771 63.2917 260.312 63.25C260.896 63.2083 261.271 63.1875 261.438 63.1875C263.438 63.1875 264.438 64.125 264.438 66L264.5 109C264.5 114.375 265.458 118.521 267.375 121.438C268.417 123.062 269.896 124.188 271.812 124.812V129.5L243.75 131.875ZM308.125 131.875H272.75L272.812 127.188C276.312 126.104 278.542 123.062 279.5 118.062C279.917 115.854 280.125 113.646 280.125 111.438V103.75L280.062 101.125V92.125C280.021 87.4583 279.292 83.875 277.875 81.375C276.458 78.875 274.75 77.4375 272.75 77.0625V72.3125C276.875 71.6875 280.688 70.625 284.188 69.125C287.688 67.5833 291.146 65.8333 294.562 63.875C295.438 63.375 296.146 63.1042 296.688 63.0625C297.271 63.0208 297.625 63 297.75 63C298.542 63 299.208 63.1667 299.75 63.5C300.458 63.9583 300.812 64.7292 300.812 65.8125V112.125C300.812 115.417 301.333 118.521 302.375 121.438C303.417 124.312 305.312 126.229 308.062 127.188L308.125 131.875ZM287.875 58.4375C291.458 58.4375 294.5 57.1875 297 54.6875C299.542 52.1458 300.812 49.0833 300.812 45.5C300.812 41.9167 299.542 38.875 297 36.375C294.5 33.8333 291.458 32.5625 287.875 32.5625C284.292 32.5625 281.229 33.8333 278.688 36.375C276.188 38.875 274.938 41.9167 274.938 45.5C274.938 49.0833 276.188 52.1458 278.688 54.6875C281.229 57.1875 284.292 58.4375 287.875 58.4375Z" fill="white"/>
<path d="M324.678 131.824C320.635 131.824 317.178 130.389 314.307 127.518C311.436 124.646 310 121.189 310 117.146C310 113.104 311.436 109.676 314.307 106.863C317.178 103.992 320.635 102.557 324.678 102.557C328.721 102.557 332.148 103.992 334.961 106.863C337.832 109.676 339.268 113.104 339.268 117.146C339.268 121.189 337.832 124.646 334.961 127.518C332.148 130.389 328.721 131.824 324.678 131.824Z" fill="url(#paint0_linear_107_11)"/>
<defs>
<linearGradient id="paint0_linear_107_11" x1="310" y1="93.734" x2="340.871" y2="132.104" gradientUnits="userSpaceOnUse">
<stop stop-color="#9737FF"/>
<stop offset="1" stop-color="#C6BCFF"/>
</linearGradient>
</defs>
</svg>
